<?xml version="1.0" encoding="UTF-8"?>
<svg version="1.1" xmlns="http://www.w3.org/2000/svg" width="703" height="355">
<path d="M0 0 C0.79953138 3.28696233 1.09658936 4.71023192 0 8 C0.474375 8.5775 0.94875 9.155 1.4375 9.75 C3.58102399 12.83667455 3.38196119 15.39112531 3 19 C2.19557917 22.93752465 1.16722615 26.80702542 0.125 30.6875 C-0.41892803 32.73178453 -0.9579997 34.77736743 -1.4921875 36.82421875 C-1.85352783 38.17132935 -1.85352783 38.17132935 -2.22216797 39.5456543 C-3.37194574 44.65180801 -4.13953509 49.83721056 -5 55 C4.9 55 14.8 55 25 55 C25.35578125 51.62201172 25.35578125 51.62201172 25.71875 48.17578125 C26.74711232 39.46338051 28.70271118 31.06321242 30.88623047 22.5769043 C31.51034284 20.14723532 32.1173871 17.71372141 32.72265625 15.27929688 C33.1162116 13.72110736 33.51070643 12.16315475 33.90625 10.60546875 C34.08651733 9.88368942 34.26678467 9.1619101 34.45251465 8.41825867 C35.30015279 5.15195522 36.10763164 2.83855255 38 0 C39.79702759 -0.36076355 39.79702759 -0.36076355 41.99072266 -0.34057617 C42.81142242 -0.34034958 43.63212219 -0.34012299 44.47769165 -0.33988953 C45.36419403 -0.32440567 46.25069641 -0.30892181 47.1640625 -0.29296875 C48.07127045 -0.28872391 48.97847839 -0.28447906 49.91317749 -0.28010559 C52.81741732 -0.26328133 55.7209691 -0.2256226 58.625 -0.1875 C60.59113583 -0.17245799 62.55728251 -0.15876875 64.5234375 -0.14648438 C69.34922439 -0.11336557 74.17449545 -0.06155786 79 0 C79.20496094 0.77085938 79.40992188 1.54171875 79.62109375 2.3359375 C79.89050781 3.33882812 80.15992188 4.34171875 80.4375 5.375 C80.70433594 6.37273438 80.97117187 7.37046875 81.24609375 8.3984375 C81.90184356 10.95417701 81.90184356 10.95417701 83 13 C83.01614023 22.7249611 80.82990321 31.94659674 78.4375 41.3125 C78.10385827 42.65015168 77.77117102 43.98804181 77.43945312 45.32617188 C76.63562879 48.55311883 75.81914045 51.7769069 75 55 C83.58 55 92.16 55 101 55 C102.10934986 48.21308462 102.10934986 48.21308462 103.18237305 41.42041016 C105.74698257 26.56744862 114.41973164 14.23845584 126.6269989 5.50524902 C135.28416591 0.01380943 144.11908795 -0.5960137 154.13671875 -0.53125 C155.45613968 -0.5350769 156.77556061 -0.53890381 158.13496399 -0.54284668 C160.90763405 -0.54869679 163.67978369 -0.54032235 166.45239258 -0.52148438 C169.98622857 -0.49862882 173.51885334 -0.51188626 177.05264568 -0.53577423 C180.45576468 -0.55378273 183.85856548 -0.54114217 187.26171875 -0.53125 C189.14947273 -0.54339539 189.14947273 -0.54339539 191.07536316 -0.55578613 C199.55706613 -0.46555103 205.23214621 0.46904719 211.609375 6.4453125 C219.55988532 16.39795863 225.08788198 27.94541629 224 41 C223.5987685 42.89627961 223.1677186 44.78632726 222.71875 46.671875 C220.81621934 54.76846891 218.99492212 62.88174525 217.1875 71 C217.01391968 71.77913757 216.84033936 72.55827515 216.66149902 73.36102295 C214.27250411 84.09892926 211.96044984 94.84887725 209.75 105.625 C209.38624268 107.39544678 209.38624268 107.39544678 209.01513672 109.20166016 C208.66539795 110.90394775 208.66539795 110.90394775 208.30859375 112.640625 C207.16134672 118.22272747 206.0114517 123.80374598 204.8125 129.375 C204.66973633 130.06416504 204.52697266 130.75333008 204.37988281 131.46337891 C201.93731776 142.64107557 196.24839078 150.13531931 188 157.75 C187.50185791 158.20987305 187.00371582 158.66974609 186.49047852 159.14355469 C176.12435485 168.46882105 166.41368032 169.31251256 152.8671875 169.30078125 C151.19126022 169.30720894 151.19126022 169.30720894 149.48147583 169.31376648 C147.13690871 169.31947095 144.7923239 169.32003898 142.44775391 169.31567383 C138.87762228 169.31250233 135.3083115 169.33606269 131.73828125 169.36132812 C129.4479177 169.36360049 127.15755195 169.36430491 124.8671875 169.36328125 C123.28247147 169.37709587 123.28247147 169.37709587 121.66574097 169.39118958 C114.45667488 169.34650453 107.43403896 168.7919482 101.66015625 164.09765625 C101.13292969 163.42605469 100.60570312 162.75445312 100.0625 162.0625 C99.51722656 161.39347656 98.97195313 160.72445312 98.41015625 160.03515625 C97 158 97 158 95.99609375 155.87109375 C95.01156576 153.66552523 95.01156576 153.66552523 92 152 C90.94773272 150.02699884 89.95211112 148.02323613 89 146 C88.46375 145.13375 87.9275 144.2675 87.375 143.375 C82.78635653 135.44916128 85.32754407 126.47182289 87.4375 118.125 C87.66759766 117.17625 87.89769531 116.2275 88.13476562 115.25 C89.83537946 108.32924107 89.83537946 108.32924107 91 106 C81.76 106.33 72.52 106.66 63 107 C62.649375 109.784375 62.29875 112.56875 61.9375 115.4375 C60.65756472 124.79253694 58.89342258 134.0335235 56.96487427 143.2727356 C56.65599332 144.75261861 56.35020523 146.23315067 56.0475769 147.71432495 C55.61489621 149.82227854 55.16898469 151.92698406 54.71875 154.03125 C54.46029297 155.25392578 54.20183594 156.47660156 53.93554688 157.73632812 C52.7514058 161.86722527 51.27038874 164.73188575 48.22729492 167.76953125 C43.73818488 170.24953943 38.39875548 169.76897417 33.37524414 169.92822266 C31.33419143 169.9992452 29.29863221 170.11348258 27.25976562 170.23046875 C19.24950415 170.52290059 13.33604275 170.20862348 7 165 C3.06371831 161.22995645 3.06371831 161.22995645 2.87109375 157.51171875 C3.05800781 156.57972656 3.24492187 155.64773437 3.4375 154.6875 C3.76427734 152.9859375 3.76427734 152.9859375 4.09765625 151.25 C4.23703613 150.59386719 4.37641602 149.93773437 4.52001953 149.26171875 C5.07698764 146.63722611 5.59854882 144.00655905 6.12109375 141.375 C8.44362075 129.83154273 11.04132655 118.39637181 14 107 C4.1 107.33 -5.8 107.66 -16 108 C-17.27983548 113.5814203 -18.55154261 119.16432036 -19.8125 124.75 C-19.99873932 125.57178741 -20.18497864 126.39357483 -20.37686157 127.24026489 C-22.69888703 137.52460156 -24.94448514 147.75322123 -25.8996582 158.27441406 C-26.29281173 161.80348318 -26.87859205 163.84153963 -29.0559082 166.68334961 C-32.71232604 169.56051595 -35.49885215 169.7265416 -39.96875 169.6640625 C-40.72667847 169.66884613 -41.48460693 169.67362976 -42.26550293 169.67855835 C-43.86240727 169.68194946 -45.45938178 169.672802 -47.05615234 169.65185547 C-49.49344402 169.62507204 -51.92613192 169.65162307 -54.36328125 169.68359375 C-55.91928095 169.6802895 -57.47527779 169.67388295 -59.03125 169.6640625 C-59.75534058 169.67418365 -60.47943115 169.68430481 -61.22546387 169.69473267 C-65.16955074 169.6038805 -66.81149137 169.16067103 -69.85351562 166.56787109 C-70.56185547 165.72047363 -71.27019531 164.87307617 -72 164 C-72.763125 163.4225 -73.52625 162.845 -74.3125 162.25 C-77.01764704 158.64313728 -76.57592929 155.26529814 -76 151 C-75.27176495 147.60393803 -74.48194271 144.23622305 -73.63696289 140.86791992 C-72.29763237 135.48309738 -71.28939603 130.10684115 -70.4375 124.625 C-69.39102199 117.93773279 -68.01117633 111.47570252 -66 105 C-66.7734375 105.09539062 -67.546875 105.19078125 -68.34375 105.2890625 C-76.11009228 106.11567814 -82.77460378 106.70537366 -89.3125 101.75 C-92.08827291 98.90967423 -93.26548749 96.53840552 -95 93 C-96.19043325 91.73294116 -97.40063383 90.48430018 -98.625 89.25 C-102.07765483 85.43237108 -102.98834438 82.49001455 -103.13671875 77.3828125 C-102.758295 70.78742718 -100.38025112 65.81598291 -96 61 C-90.25096487 55.99859724 -85.86960427 54.91704925 -78.265625 54.68359375 C-76.97011719 54.64169922 -75.67460937 54.59980469 -74.33984375 54.55664062 C-72.97656524 54.51683329 -71.61328394 54.47712094 -70.25 54.4375 C-68.87108125 54.39427726 -67.49217474 54.35066179 -66.11328125 54.30664062 C-62.7422881 54.20056042 -59.37122174 54.0985015 -56 54 C-55.77860352 52.98800537 -55.55720703 51.97601074 -55.32910156 50.93334961 C-54.49006602 47.10251714 -53.64652205 43.27268812 -52.80175781 39.44311523 C-52.43989068 37.79982215 -52.07917347 36.15627534 -51.71972656 34.51245117 C-49.89084519 26.1522155 -48.02704047 17.79955241 -45.921875 9.50390625 C-45.6237793 8.31740479 -45.32568359 7.13090332 -45.01855469 5.90844727 C-43.49727228 1.56447859 -43.49727228 1.56447859 -41 0 C-37.97241211 -0.44824219 -37.97241211 -0.44824219 -34.27734375 -0.546875 C-33.28717003 -0.57735931 -33.28717003 -0.57735931 -32.2769928 -0.60845947 C-30.87763147 -0.64865176 -29.47805343 -0.6818232 -28.07836914 -0.70849609 C-25.96881209 -0.74939297 -23.86083303 -0.81214607 -21.75195312 -0.87890625 C-14.43167251 -1.08288798 -7.2625061 -1.01555224 0 0 Z M153.7890625 44.16015625 C151.6251652 47.59498887 151.0428806 50.44228651 150.375 54.4375 C149.1511323 61.57192879 149.1511323 61.57192879 148.01220703 64.79785156 C146.93367608 68.20981779 146.48600511 71.37157315 146.09375 74.92578125 C145.13900172 82.82691169 143.40295905 90.46021231 141.5 98.1875 C138.11923666 111.47436159 138.11923666 111.47436159 136 125 C137.92184327 126.92184327 141.19289308 126.26210059 143.75 126.3125 C144.98234375 126.34988281 146.2146875 126.38726562 147.484375 126.42578125 C151.77550512 125.90607771 153.22682308 125.32681476 156 122 C156.72801931 119.75703408 157.09652011 117.56511727 157.46240234 115.234375 C158.12580006 111.24314295 159.05009486 107.34042494 159.98828125 103.40625 C160.36696315 101.79439011 160.74512352 100.18240762 161.12280273 98.5703125 C161.41463943 97.32749512 161.41463943 97.32749512 161.71237183 96.05957031 C164.9199571 82.37909271 167.99516268 68.71009994 170.50317383 54.88085938 C171.42480935 49.81551279 172.47622039 44.91982655 174 40 C171.9377952 39.945652 169.87517184 39.90705039 167.8125 39.875 C166.66394531 39.85179687 165.51539063 39.82859375 164.33203125 39.8046875 C159.65617262 40.07877066 157.15753977 40.86904683 153.7890625 44.16015625 Z " fill="#337EBD" transform="translate(308,33)"/>
<path d="M0 0 C2.31654812 1.48786424 3.76603907 2.43054793 4.828125 5.015625 C6.14088375 11.9683843 6.37166866 17.73005978 4.71875 24.671875 C2.81621934 32.76846891 0.99492212 40.88174525 -0.8125 49 C-0.98608032 49.77913757 -1.15966064 50.55827515 -1.33850098 51.36102295 C-3.72749589 62.09892926 -6.03955016 72.84887725 -8.25 83.625 C-8.49250488 84.80529785 -8.73500977 85.9855957 -8.98486328 87.20166016 C-9.21802246 88.33651855 -9.45118164 89.47137695 -9.69140625 90.640625 C-10.83865328 96.22272747 -11.9885483 101.80374598 -13.1875 107.375 C-13.40164551 108.40874756 -13.40164551 108.40874756 -13.62011719 109.46337891 C-16.06268224 120.64107557 -21.75160922 128.13531931 -30 135.75 C-30.49814209 136.20987305 -30.99628418 136.66974609 -31.50952148 137.14355469 C-41.87564515 146.46882105 -51.58631968 147.31251256 -65.1328125 147.30078125 C-66.80873978 147.30720894 -66.80873978 147.30720894 -68.51852417 147.31376648 C-70.86309129 147.31947095 -73.2076761 147.32003898 -75.55224609 147.31567383 C-79.12237772 147.31250233 -82.6916885 147.33606269 -86.26171875 147.36132812 C-88.5520823 147.36360049 -90.84244805 147.36430491 -93.1328125 147.36328125 C-94.18928986 147.372491 -95.24576721 147.38170074 -96.33425903 147.39118958 C-103.42860766 147.34721561 -110.42991877 146.80006371 -116.19140625 142.28125 C-116.64386719 141.6934375 -117.09632813 141.105625 -117.5625 140.5 C-118.03816406 139.9121875 -118.51382812 139.324375 -119.00390625 138.71875 C-120 137 -120 137 -120 134 C-117.42754799 134.48180677 -114.92195742 135.02226852 -112.40405273 135.74072266 C-102.88073146 138.35521855 -93.66353473 138.45868489 -83.84399414 138.39111328 C-81.07062447 138.37504707 -78.29871594 138.39102818 -75.52539062 138.41015625 C-60.18551607 138.43097042 -47.72426538 137.92726702 -36 127 C-35.13890625 126.34386719 -34.2778125 125.68773437 -33.390625 125.01171875 C-31.03941838 123.0331707 -29.79461086 121.40893643 -28.3125 118.75 C-27.11328125 116.609375 -27.11328125 116.609375 -26 115 C-25.34 115 -24.68 115 -24 115 C-23.814375 113.9171875 -23.814375 113.9171875 -23.625 112.8125 C-23 110 -23 110 -22.046875 107.765625 C-20.81405127 104.50876231 -20.22810302 101.3680919 -19.625 97.9375 C-16.44515335 80.15597885 -12.56226621 62.59850468 -8.27905273 45.05273438 C-2.79961845 22.75560405 -2.79961845 22.75560405 0 0 Z " fill="#8B8E97" transform="translate(526,55)"/>
<path d="M0 0 C1.63984529 0.00031732 3.27971127 0.01165397 4.91943359 0.03173828 C6.21365738 0.03598312 6.21365738 0.03598312 7.5340271 0.04031372 C10.29544829 0.05152746 13.05654759 0.07663394 15.81787109 0.10205078 C17.68765808 0.11207905 19.55745015 0.12120517 21.42724609 0.12939453 C26.01591218 0.15147066 30.60433702 0.18600844 35.19287109 0.22705078 C35.07888444 1.85286044 34.95131451 3.47772235 34.81787109 5.10205078 C34.74826172 6.00697266 34.67865234 6.91189453 34.60693359 7.84423828 C34.19287109 10.22705078 34.19287109 10.22705078 32.19287109 12.22705078 C32.19287109 11.56705078 32.19287109 10.90705078 32.19287109 10.22705078 C22.29287109 10.55705078 12.39287109 10.88705078 2.19287109 11.22705078 C0.91303561 16.80847108 -0.35867152 22.39137114 -1.61962891 27.97705078 C-1.89898788 29.2097319 -1.89898788 29.2097319 -2.18399048 30.46731567 C-4.50601594 40.75165234 -6.75161405 50.98027201 -7.70678711 61.50146484 C-8.09994063 65.03053396 -8.68572096 67.06859041 -10.86303711 69.91040039 C-14.51945495 72.78756673 -17.30598106 72.95359238 -21.77587891 72.89111328 C-22.53380737 72.89589691 -23.29173584 72.90068054 -24.07263184 72.90560913 C-25.66953618 72.90900024 -27.26651069 72.89985279 -28.86328125 72.87890625 C-31.30057293 72.85212282 -33.73326083 72.87867385 -36.17041016 72.91064453 C-37.72640985 72.90734028 -39.28240669 72.90093373 -40.83837891 72.89111328 C-41.56246948 72.90123444 -42.28656006 72.91135559 -43.03259277 72.92178345 C-46.92512431 72.83211886 -48.63346109 72.36934387 -51.68017578 69.87304688 C-53.80712891 67.22705078 -53.80712891 67.22705078 -55.80712891 64.22705078 C-43.26712891 64.22705078 -30.72712891 64.22705078 -17.80712891 64.22705078 C-17.80712891 63.56705078 -17.80712891 62.90705078 -17.80712891 62.22705078 C-17.14712891 62.22705078 -16.48712891 62.22705078 -15.80712891 62.22705078 C-15.82775391 61.25767578 -15.84837891 60.28830078 -15.86962891 59.28955078 C-15.80712891 56.22705078 -15.80712891 56.22705078 -14.80712891 55.22705078 C-14.50068619 52.72696368 -14.23796648 50.23340037 -13.99462891 47.72705078 C-13.25019416 40.67182259 -11.92108731 33.93553526 -10.20288086 27.05883789 C-9.14494204 22.7896025 -8.38171699 18.66604141 -8.01416016 14.28955078 C-6.61941901 0.39477105 -6.61941901 0.39477105 0 0 Z " fill="#84848B" transform="translate(289.80712890625,129.77294921875)"/>
<path d="M0 0 C11.88 0 23.76 0 36 0 C35.34 3.3 34.68 6.6 34 10 C19.645 10.495 19.645 10.495 5 11 C4.4740625 15.1765625 4.4740625 15.1765625 3.9375 19.4375 C2.65756472 28.79253694 0.89342258 38.0335235 -1.03512573 47.2727356 C-1.34400668 48.75261861 -1.64979477 50.23315067 -1.9524231 51.71432495 C-2.38510379 53.82227854 -2.83101531 55.92698406 -3.28125 58.03125 C-3.53970703 59.25392578 -3.79816406 60.47660156 -4.06445312 61.73632812 C-5.24832949 65.86630182 -6.7339409 68.72834042 -9.76611328 71.77392578 C-14.29521182 74.25973265 -19.73035243 73.6892799 -24.78955078 73.81835938 C-26.86246932 73.87465967 -28.93228225 73.9630968 -31.00390625 74.0546875 C-32.32003906 74.0959375 -33.63617188 74.1371875 -34.9921875 74.1796875 C-36.79212158 74.23745361 -36.79212158 74.23745361 -38.62841797 74.29638672 C-42.37996199 73.96659856 -44.76652506 72.87895275 -48 71 C-48 70.01 -48 69.02 -48 68 C-48.66 68 -49.32 68 -50 68 C-50 67.34 -50 66.68 -50 66 C-37.98168818 65.20446163 -26.04394251 64.87187295 -14 65 C-14 64.34 -14 63.68 -14 63 C-13.34 63 -12.68 63 -12 63 C-12.04898438 61.92363281 -12.09796875 60.84726563 -12.1484375 59.73828125 C-12.14594114 54.06280308 -10.85616531 48.70353557 -9.625 43.1875 C-9.17828603 41.13962812 -8.73296576 39.09145172 -8.2890625 37.04296875 C-8.07024414 36.04185059 -7.85142578 35.04073242 -7.62597656 34.00927734 C-6.8289484 30.17769812 -6.1687768 26.32859466 -5.54052734 22.46606445 C-4.96141736 19.82397324 -4.02277816 17.4993295 -3 15 C-2.59319164 12.77983672 -2.24098797 10.54912985 -1.9375 8.3125 C-1.09984399 2.19968799 -1.09984399 2.19968799 0 0 Z " fill="#939094" transform="translate(366,129)"/>
<path d="M0 0 C3.45831586 -0.02894547 6.91660072 -0.04678 10.375 -0.0625 C11.35984375 -0.07087891 12.3446875 -0.07925781 13.359375 -0.08789062 C14.77089844 -0.09272461 14.77089844 -0.09272461 16.2109375 -0.09765625 C17.51490479 -0.10551147 17.51490479 -0.10551147 18.84521484 -0.11352539 C21 0 21 0 23 1 C23 3.31 23 5.62 23 8 C18.38 8 13.76 8 9 8 C9 8.66 9 9.32 9 10 C8.236875 10.2475 7.47375 10.495 6.6875 10.75 C3.57932704 12.19566184 2.75023416 13.08294307 1 16 C0.06048738 19.51652439 0.06048738 19.51652439 -0.5625 23.375 C-1.82909217 30.51657621 -1.82909217 30.51657621 -2.98974609 33.79956055 C-4.06711403 37.21261425 -4.51651797 40.37878188 -4.91015625 43.93359375 C-5.86085503 51.78554876 -7.55957878 59.37937008 -9.4375 67.0625 C-10.041642 69.5739118 -10.64451236 72.08562985 -11.24609375 74.59765625 C-11.68284424 76.41740967 -11.68284424 76.41740967 -12.12841797 78.27392578 C-13.50622667 84.16415448 -14.7608965 90.07907922 -16 96 C-17.66611905 96.042721 -19.33382885 96.04063832 -21 96 C-22.64406785 94.35593215 -22.29039728 92.59351953 -22.375 90.3125 C-22.31025132 81.22610201 -19.80106404 72.56846072 -17.66699219 63.78662109 C-16.67004872 59.62149931 -15.75917166 55.44033746 -14.875 51.25 C-14.71088623 50.4765625 -14.54677246 49.703125 -14.37768555 48.90625 C-13.27552264 43.60428392 -12.39128286 38.28797335 -11.5625 32.9375 C-10.55745895 26.561903 -9.19639766 20.35312166 -7.5 14.125 C-7.29834229 13.36952881 -7.09668457 12.61405762 -6.88891602 11.83569336 C-5.81300614 8.04601802 -4.80049125 4.84517994 -2 2 C-1.34 2 -0.68 2 0 2 C0 1.34 0 0.68 0 0 Z " fill="#8C909B" transform="translate(460,64)"/>
<path d="M0 0 C2.31654812 1.48786424 3.76603907 2.43054793 4.828125 5.015625 C6.13478803 11.93609955 6.38260805 17.68410728 4.734375 24.59375 C3.46396629 29.99798045 2.22951734 35.40830382 1.02734375 40.828125 C0.85713211 41.59465393 0.68692047 42.36118286 0.5115509 43.15093994 C-0.01358142 45.51719402 -0.53805949 47.88359251 -1.0625 50.25 C-1.4172673 51.84896952 -1.77208477 53.44792791 -2.12695312 55.046875 C-2.79600873 58.06178847 -3.46480165 61.07675997 -4.13330078 64.09179688 C-5.08742614 68.3948519 -6.04333987 72.69750781 -7 77 C-7.66 77 -8.32 77 -9 77 C-9 75.35 -9 73.7 -9 72 C-9.66 72 -10.32 72 -11 72 C-10.89300781 72.57105469 -10.78601563 73.14210938 -10.67578125 73.73046875 C-9.55468702 81.31292328 -10.96725751 87.67293951 -13 95 C-15 93 -15 93 -15.25 89.25 C-14.85267112 71.85267112 -14.85267112 71.85267112 -11 68 C-10.84184048 65.60935801 -10.77694126 63.26754927 -10.75 60.875 C-10.42524676 51.13770915 -7.97355009 42.14227004 -5.49609375 32.765625 C-2.65108087 21.99382981 -0.68414269 11.13501204 0 0 Z " fill="#96959A" transform="translate(526,55)"/>
<path d="M0 0 C1.28825684 0.01047363 2.57651367 0.02094727 3.90380859 0.03173828 C4.93167984 0.03598312 4.93167984 0.03598312 5.98031616 0.04031372 C8.17113636 0.05151797 10.36154925 0.07662219 12.55224609 0.10205078 C14.03661519 0.1120803 15.5209907 0.1212062 17.00537109 0.12939453 C20.6461287 0.15145784 24.28664766 0.18598903 27.92724609 0.22705078 C27.92724609 2.86705078 27.92724609 5.50705078 27.92724609 8.22705078 C18.35724609 8.55705078 8.78724609 8.88705078 -1.07275391 9.22705078 C-2.01581028 15.86780711 -2.01581028 15.86780711 -2.95727539 22.50878906 C-3.60999239 27.0914706 -4.28180589 31.66566127 -5.07275391 36.22705078 C-5.73275391 36.22705078 -6.39275391 36.22705078 -7.07275391 36.22705078 C-7.40275391 37.21705078 -7.73275391 38.20705078 -8.07275391 39.22705078 C-9.57275391 38.22705078 -9.57275391 38.22705078 -11.07275391 36.22705078 C-11.39134888 31.36847738 -11.02992424 27.01290245 -10.07275391 22.22705078 C-9.41275391 22.22705078 -8.75275391 22.22705078 -8.07275391 22.22705078 C-7.94900391 21.34017578 -7.82525391 20.45330078 -7.69775391 19.53955078 C-7.60623047 18.91306641 -7.51470703 18.28658203 -7.42041016 17.64111328 C-7.14684984 15.74155962 -6.88661734 13.84008627 -6.63134766 11.93798828 C-6.46763672 10.77525391 -6.30392578 9.61251953 -6.13525391 8.41455078 C-5.98185547 7.29435547 -5.82845703 6.17416016 -5.67041016 5.02001953 C-4.8237448 1.06338078 -4.05833824 0.29987721 0 0 Z " fill="#958F92" transform="translate(372.07275390625,130.77294921875)"/>
<path d="M0 0 C0.33 0 0.66 0 1 0 C1 3.63 1 7.26 1 11 C1.99 10.67 2.98 10.34 4 10 C4.33 9.01 4.66 8.02 5 7 C4.67363978 9.93724195 4.19724766 11.7289819 2.44506836 14.13647461 C-0.88584989 16.67515648 -3.84434831 16.5937934 -7.87109375 16.56640625 C-8.63043716 16.57260483 -9.38978058 16.57880341 -10.1721344 16.58518982 C-11.77498088 16.59228001 -13.37790113 16.5891278 -14.98071289 16.57641602 C-17.42667985 16.56256129 -19.86880995 16.59661015 -22.31445312 16.63476562 C-23.87500093 16.63571703 -25.43555351 16.63385687 -26.99609375 16.62890625 C-27.72332138 16.64216446 -28.45054901 16.65542267 -29.19981384 16.66908264 C-33.10545188 16.5978765 -34.81600233 16.15050094 -37.87524414 13.64819336 C-40 11 -40 11 -42 8 C-29.46 8 -16.92 8 -4 8 C-4 7.34 -4 6.68 -4 6 C-3.34 6 -2.68 6 -2 6 C-1.34 4.02 -0.68 2.04 0 0 Z " fill="#8F8B8F" transform="translate(276,186)"/>
<path d="M0 0 C0.66 0.99 1.32 1.98 2 3 C2.66 3 3.32 3 4 3 C3.75065029 15.0141223 0.83906281 26.38252371 -2 38 C-2.66 38 -3.32 38 -4 38 C-5.06546953 41.1964086 -5.07427838 43.65747276 -5 47 C-7.31 47 -9.62 47 -12 47 C-12.27339314 41.28152685 -11.3070871 36.54779562 -9.75 31.0625 C-9.29075542 29.38566597 -8.83243834 27.70857767 -8.375 26.03125 C-8.02888672 24.77441406 -8.02888672 24.77441406 -7.67578125 23.4921875 C-6.64631234 19.69564898 -5.69403635 15.88102886 -4.75 12.0625 C-4.43546875 10.79535156 -4.1209375 9.52820312 -3.796875 8.22265625 C-3.33709457 6.36325008 -2.8977847 4.497991 -2.515625 2.62109375 C-2.34546875 2.08613281 -2.1753125 1.55117188 -2 1 C-1.34 0.67 -0.68 0.34 0 0 Z " fill="#928F97" transform="translate(387,43)"/>
<path d="M0 0 C0.33 0.66 0.66 1.32 1 2 C1.99 2 2.98 2 4 2 C6.38505274 5.57757912 6.46331368 7.87734058 6 12 C5.21564417 15.91664307 4.21090197 19.76483126 3.1875 23.625 C2.635862 25.76279994 2.0850742 27.90081945 1.53515625 30.0390625 C1.26977051 31.06290039 1.00438477 32.08673828 0.73095703 33.14160156 C-0.6148387 38.40431912 -1.81946137 43.69793178 -3 49 C-5.475 49.495 -5.475 49.495 -8 50 C-7.67787564 40.99662405 -6.52780643 32.20242385 -5.125 23.3125 C-4.96354492 22.26843994 -4.80208984 21.22437988 -4.63574219 20.14868164 C-3.52207519 13.28881728 -1.96429751 6.6655822 0 0 Z " fill="#8A8A90" transform="translate(305,40)"/>
<path d="M0 0 C11.88 0 23.76 0 36 0 C35.67 2.31 35.34 4.62 35 7 C34.67 7 34.34 7 34 7 C34 5.35 34 3.7 34 2 C29.60324012 2.11797018 25.20671601 2.24219726 20.81030273 2.37231445 C19.31360731 2.41571813 17.81686061 2.45738913 16.32006836 2.49731445 C14.17285688 2.55488616 12.02590479 2.61861716 9.87890625 2.68359375 C8.5854126 2.72025146 7.29191895 2.75690918 5.95922852 2.79467773 C3.11444992 2.6667278 3.11444992 2.6667278 2 4 C1.45900338 6.60207614 0.96234328 9.19636945 0.5 11.8125 C-0.98133543 20.06251169 -0.98133543 20.06251169 -2 24 C-2.66 24 -3.32 24 -4 24 C-4.05384521 26.29141286 -4.09272087 28.58318188 -4.125 30.875 C-4.14820313 32.15117187 -4.17140625 33.42734375 -4.1953125 34.7421875 C-4.35641524 38.08593338 -4.35641524 38.08593338 -2 40 C-1.34 39.34 -0.68 38.68 0 38 C-0.60825035 42.34464536 -1.26167392 46.67551867 -2 51 C-2.66 50.01 -3.32 49.02 -4 48 C-6.61047965 52.84803364 -8.36041242 57.76727367 -10 63 C-10.66 63 -11.32 63 -12 63 C-12.31436981 56.09213703 -11.12656108 49.91499977 -9.625 43.1875 C-9.17828603 41.13962812 -8.73296576 39.09145172 -8.2890625 37.04296875 C-8.07024414 36.04185059 -7.85142578 35.04073242 -7.62597656 34.00927734 C-6.8289484 30.17769812 -6.1687768 26.32859466 -5.54052734 22.46606445 C-4.96141736 19.82397324 -4.02277816 17.4993295 -3 15 C-2.59319164 12.77983672 -2.24098797 10.54912985 -1.9375 8.3125 C-1.09984399 2.19968799 -1.09984399 2.19968799 0 0 Z " fill="#758AA4" transform="translate(366,129)"/>
<path d="M0 0 C0.66 0 1.32 0 2 0 C2.61950727 9.29260905 0.28436633 17.52197851 -5.76953125 24.66015625 C-8.4803578 27.503913 -11.25906865 30.25049703 -14.125 32.9375 C-14.62765381 33.41058594 -15.13030762 33.88367188 -15.64819336 34.37109375 C-19.45323374 37.81509017 -22.6372903 39.89499068 -27.8125 40.125 C-28.534375 40.08375 -29.25625 40.0425 -30 40 C-30.495 38.515 -30.495 38.515 -31 37 C-30.360625 36.731875 -29.72125 36.46375 -29.0625 36.1875 C-26.66868314 35.11332248 -26.66868314 35.11332248 -26 32 C-25.01 32 -24.02 32 -23 32 C-22.67 31.34 -22.34 30.68 -22 30 C-19.4375 29.375 -19.4375 29.375 -17 29 C-16.67 28.01 -16.34 27.02 -16 26 C-15.071875 25.87625 -15.071875 25.87625 -14.125 25.75 C-11.58553503 25.132527 -11.58553503 25.132527 -10.375 21.6875 C-9.92125 20.470625 -9.4675 19.25375 -9 18 C-8.67515625 17.36191406 -8.3503125 16.72382813 -8.015625 16.06640625 C-6.91940112 13.83601228 -6.13964554 11.61344984 -5.375 9.25 C-5.11460937 8.45078125 -4.85421875 7.6515625 -4.5859375 6.828125 C-4.39257812 6.22484375 -4.19921875 5.6215625 -4 5 C-3.01 5 -2.02 5 -1 5 C-0.67 3.35 -0.34 1.7 0 0 Z " fill="#979193" transform="translate(510,158)"/>
<path d="M0 0 C3.45831586 -0.02894547 6.91660072 -0.04678 10.375 -0.0625 C11.35984375 -0.07087891 12.3446875 -0.07925781 13.359375 -0.08789062 C14.77089844 -0.09272461 14.77089844 -0.09272461 16.2109375 -0.09765625 C17.51490479 -0.10551147 17.51490479 -0.10551147 18.84521484 -0.11352539 C21 0 21 0 23 1 C23 3.31 23 5.62 23 8 C18.38 8 13.76 8 9 8 C9 8.66 9 9.32 9 10 C8.2575 10.2475 7.515 10.495 6.75 10.75 C3.79875938 12.09147301 2.15185026 13.60905526 0 16 C-0.33 13.69 -0.66 11.38 -1 9 C-1.33 10.32 -1.66 11.64 -2 13 C-3.32 12.67 -4.64 12.34 -6 12 C-5.52651586 7.8333396 -4.95303159 5.07115285 -2 2 C-1.34 2 -0.68 2 0 2 C0 1.34 0 0.68 0 0 Z " fill="#8E898D" transform="translate(460,64)"/>
<path d="M0 0 C0.66 0 1.32 0 2 0 C2 0.66 2 1.32 2 2 C3.299375 1.979375 4.59875 1.95875 5.9375 1.9375 C7.29165633 1.91600546 8.64756083 1.92851801 10 2 C10.33 2.33 10.66 2.66 11 3 C12.41570123 3.08651611 13.835595 3.10704904 15.25390625 3.09765625 C16.10791016 3.09443359 16.96191406 3.09121094 17.84179688 3.08789062 C19.18854492 3.07532227 19.18854492 3.07532227 20.5625 3.0625 C21.46419922 3.05798828 22.36589844 3.05347656 23.29492188 3.04882812 C25.52997589 3.03700244 27.76499602 3.01906638 30 3 C29.67 6.63 29.34 10.26 29 14 C28.67 13.34 28.34 12.68 28 12 C26.83984375 12.14308594 26.83984375 12.14308594 25.65625 12.2890625 C17.84882238 13.12005108 11.22501726 13.66828209 4.625 8.75 C1.86383106 5.85734682 0.89671252 3.85586385 0 0 Z " fill="#827C7F" transform="translate(214,126)"/>
<path d="M0 0 C0.66 0.66 1.32 1.32 2 2 C1.67 2.66 1.34 3.32 1 4 C1.66 4.33 2.32 4.66 3 5 C0.77909739 24.83135392 0.77909739 24.83135392 -4 32 C-6.69587335 39.10362628 -7.90640598 46.5120974 -9 54 C-9.33 54 -9.66 54 -10 54 C-10.23783332 47.55207431 -9.72988473 42.20723344 -8 36 C-6.94249696 30.50098421 -6.98336342 25.24438512 -7.16015625 19.671875 C-7 17 -7 17 -5 14 C-4.6325272 11.42351458 -4.49630771 8.87463871 -4.34375 6.27734375 C-4 4 -4 4 -2 2 C-2 2.99 -2 3.98 -2 5 C-1.34 3.35 -0.68 1.7 0 0 Z " fill="#A09EA3" transform="translate(458,72)"/>
<path d="M0 0 C3.25048455 0.30758717 6.5002817 0.62192818 9.75 0.9375 C10.67039062 1.02451172 11.59078125 1.11152344 12.5390625 1.20117188 C13.42851562 1.28818359 14.31796875 1.37519531 15.234375 1.46484375 C16.45979004 1.58267212 16.45979004 1.58267212 17.70996094 1.70288086 C20 2 20 2 21.90246582 2.51147461 C25.38420538 3.32238782 28.92804967 3.12092944 32.484375 3.09765625 C33.29996887 3.0962413 34.11556274 3.09482635 34.95587158 3.09336853 C37.55395212 3.08778303 40.15194563 3.07523321 42.75 3.0625 C44.51432167 3.05748312 46.27864469 3.05292054 48.04296875 3.04882812 C52.36201256 3.03781835 56.68099154 3.02056369 61 3 C60 5 60 5 58.23667908 5.62223816 C52.89308115 6.76634924 47.83836568 7.30758335 42.37890625 7.30078125 C41.20170265 7.30720894 41.20170265 7.30720894 40.00071716 7.31376648 C38.35457313 7.31946354 36.70840395 7.32004456 35.06225586 7.31567383 C32.57165816 7.31251163 30.0822486 7.33603812 27.59179688 7.36132812 C8.13140545 7.44283787 8.13140545 7.44283787 1.375 1.8125 C0.92125 1.214375 0.4675 0.61625 0 0 Z " fill="#928B8E" transform="translate(413,193)"/>
<path d="M0 0 C13.53 0 27.06 0 41 0 C41.99 4.29 42.98 8.58 44 13 C43.34 13.33 42.68 13.66 42 14 C41.505 12.515 41.505 12.515 41 11 C40.34 11 39.68 11 39 11 C38.81050781 12.74023438 38.81050781 12.74023438 38.6171875 14.515625 C38.0955674 18.67760434 37.1907618 22.69647874 36.125 26.75 C35.76818085 28.1406126 35.41141056 29.53123774 35.0546875 30.921875 C34.87776367 31.60443359 34.70083984 32.28699219 34.51855469 32.99023438 C33.74479112 35.98911465 32.9977998 38.99455701 32.25 42 C31.83333333 43.66666667 31.41666667 45.33333333 31 47 C30.67 47 30.34 47 30 47 C30.14084796 45.20793453 30.28783701 43.41635083 30.4375 41.625 C30.51871094 40.62726563 30.59992188 39.62953125 30.68359375 38.6015625 C31 36 31 36 32 34 C32.52786722 30.50010725 32.96196866 26.99236757 33.40234375 23.48046875 C34 20 34 20 36 15 C36.66 10.71 37.32 6.42 38 2 C25.46 2 12.92 2 0 2 C0 1.34 0 0.68 0 0 Z " fill="#4C86BB" transform="translate(346,33)"/>
<path d="M0 0 C0.33 0 0.66 0 1 0 C1.28413852 7.67266854 0.56603218 14.58649107 -1.125 22.0625 C-1.34655762 23.08182617 -1.56811523 24.10115234 -1.79638672 25.15136719 C-2.51630122 28.43769443 -3.25554523 31.71914966 -4 35 C-4.25652344 36.13743652 -4.51304687 37.27487305 -4.77734375 38.44677734 C-6.95535089 48.07579026 -9.1533777 57.6973565 -11.5859375 67.265625 C-12.73457789 71.82892092 -13.68895672 76.36546696 -14.5 81 C-15.71121523 87.74691745 -17.23080484 94.37492876 -19 101 C-19.33 101 -19.66 101 -20 101 C-20.125 95.25 -20.125 95.25 -19 93 C-18.7940385 91.27507247 -18.6337837 89.54452109 -18.5 87.8125 C-17.46835086 75.7025263 -17.46835086 75.7025263 -15 72 C-14.418498 69.66008046 -13.90470796 67.30289316 -13.4375 64.9375 C-12.09262436 58.18524871 -12.09262436 58.18524871 -11 56 C-10.70251599 53.94117504 -10.43718682 51.87766668 -10.1875 49.8125 C-9.46667482 44.48276233 -8.40479521 39.50119612 -6.9375 34.3125 C-5.42266998 28.9407227 -4.49915075 23.9405686 -4.2734375 18.3671875 C-3.95902054 15.64523494 -3.05411373 13.51929111 -2 11 C-1.63239269 8.67182036 -1.29758419 6.3381615 -1 4 C-0.69096017 2.66082739 -0.37057089 1.32346746 0 0 Z " fill="#3872A8" transform="translate(525,55)"/>
<path d="M0 0 C0.66 0 1.32 0 2 0 C2 0.99 2 1.98 2 3 C-3.625 5 -3.625 5 -7 5 C-7.33 5.99 -7.66 6.98 -8 8 C-11.76916217 8.39328061 -15.54036107 8.76147442 -19.3125 9.125 C-20.9202832 9.29322266 -20.9202832 9.29322266 -22.56054688 9.46484375 C-23.58857422 9.56152344 -24.61660156 9.65820312 -25.67578125 9.7578125 C-26.62364502 9.8520752 -27.57150879 9.94633789 -28.5480957 10.04345703 C-31 10 -31 10 -34 8 C-34 7.01 -34 6.02 -34 5 C-34.66 5 -35.32 5 -36 5 C-36 4.34 -36 3.68 -36 3 C-23.98168818 2.20446163 -12.04394251 1.87187295 0 2 C0 1.34 0 0.68 0 0 Z " fill="#8F8A8D" transform="translate(352,192)"/>
<path d="M0 0 C2.97 0.33 5.94 0.66 9 1 C9.84454356 4.37817425 10.10844919 6.67465243 9 10 C8.01 10 7.02 10 6 10 C3.27593796 22.87361301 1.04180072 35.7329909 -0.70068359 48.77587891 C-1.11484844 51.85340073 -1.55620622 54.9266244 -2 58 C0.475 57.505 0.475 57.505 3 57 C3 55.35 3 53.7 3 52 C3.33 52 3.66 52 4 52 C4 53.65 4 55.3 4 57 C9.61 57 15.22 57 21 57 C21 57.33 21 57.66 21 58 C16.85451585 58.19583915 12.7086033 58.38027842 8.5625 58.5625 C7.37849609 58.61857422 6.19449219 58.67464844 4.97460938 58.73242188 C3.84990234 58.78076172 2.72519531 58.82910156 1.56640625 58.87890625 C0.00321655 58.94960327 0.00321655 58.94960327 -1.59155273 59.02172852 C-4 59 -4 59 -5 58 C-4.93461924 56.47543961 -4.79630891 54.95381536 -4.625 53.4375 C-4.52574219 52.54160156 -4.42648437 51.64570312 -4.32421875 50.72265625 C-3.89832092 47.14614075 -3.46302764 43.57192751 -3 40 C-2.34 40 -1.68 40 -1 40 C-1.061875 38.824375 -1.12375 37.64875 -1.1875 36.4375 C-1.1875 25.20630374 2.41632095 13.86611118 5 3 C3.35 2.67 1.7 2.34 0 2 C0 1.34 0 0.68 0 0 Z " fill="#6991B3" transform="translate(299,32)"/>
<path d="M0 0 C0.66 0.33 1.32 0.66 2 1 C2.13738804 7.26989077 1.71246197 13.08074459 0.625 19.25 C0.49867188 20.02601563 0.37234375 20.80203125 0.2421875 21.6015625 C-1.12348453 29.60440057 -1.12348453 29.60440057 -3 33 C-4.32 33.66 -5.64 34.32 -7 35 C-6.67 27.74 -6.34 20.48 -6 13 C-5.01 13 -4.02 13 -3 13 C-3.061875 12.34 -3.12375 11.68 -3.1875 11 C-2.93182247 6.90915946 -1.54304956 3.79333016 0 0 Z " fill="#95949A" transform="translate(283,163)"/>
<path d="M0 0 C3.465 1.98 3.465 1.98 7 4 C7 4.99 7 5.98 7 7 C7.66 7.33 8.32 7.66 9 8 C8.95875 8.78375 8.9175 9.5675 8.875 10.375 C8.71271266 13.16116119 8.71271266 13.16116119 11 15 C13.81402683 15.37239227 13.81402683 15.37239227 17.1015625 15.4140625 C18.31328125 15.45273438 19.525 15.49140625 20.7734375 15.53125 C22.04445312 15.5621875 23.31546875 15.593125 24.625 15.625 C25.90375 15.66367188 27.1825 15.70234375 28.5 15.7421875 C31.66652017 15.83671049 34.8330304 15.92226357 38 16 C38.05399736 17.45792884 38.09279177 18.91642712 38.125 20.375 C38.14820313 21.18710938 38.17140625 21.99921875 38.1953125 22.8359375 C38 25 38 25 36 27 C36.33 24.03 36.66 21.06 37 18 C36.01 18.495 36.01 18.495 35 19 C32.13568858 19.0980731 29.30124116 19.13902649 26.4375 19.125 C25.64408203 19.12886719 24.85066406 19.13273437 24.03320312 19.13671875 C18.12663067 19.12663067 18.12663067 19.12663067 17 18 C15.65252916 17.76924918 14.29622435 17.58846937 12.9375 17.4375 C11.638125 17.293125 10.33875 17.14875 9 17 C9 16.34 9 15.68 9 15 C8.13375 14.938125 8.13375 14.938125 7.25 14.875 C3.70327826 13.49571932 2.74563414 11.31068543 1 8 C0.41300952 5.29790331 0.19119815 2.77237324 0 0 Z " fill="#598CB3" transform="translate(207,111)"/>
<path d="M0 0 C2.31654812 1.48786424 3.76603907 2.43054793 4.828125 5.015625 C6.33222404 12.98177917 7.03042376 20.61590273 3 28 C0.953125 29.13671875 0.953125 29.13671875 -1 30 C-1.33 30.66 -1.66 31.32 -2 32 C-2.12578616 24.57861635 -2.12578616 24.57861635 -1.53125 21.84375 C-0.74751791 17.64847823 -0.63118983 13.44550106 -0.4375 9.1875 C-0.37272461 7.86202148 -0.37272461 7.86202148 -0.30664062 6.50976562 C-0.20108464 4.34000377 -0.10008929 2.1700209 0 0 Z " fill="#9094A1" transform="translate(526,55)"/>
<path d="M0 0 C0.66 0 1.32 0 2 0 C2.21238928 6.75534931 1.48266584 12.78031989 0.0625 19.375 C-0.11990234 20.26316406 -0.30230469 21.15132812 -0.49023438 22.06640625 C-1.19489688 25.45391109 -1.90472144 28.71416433 -3 32 C-4.32 31.67 -5.64 31.34 -7 31 C-7.05422947 29.5629191 -7.09289723 28.12524538 -7.125 26.6875 C-7.14820313 25.88699219 -7.17140625 25.08648437 -7.1953125 24.26171875 C-7 22 -7 22 -5 19 C-4.62266476 16.90648818 -4.31825614 14.79931496 -4.0625 12.6875 C-3.38345847 7.82013029 -2.60951575 4.15150232 0 0 Z " fill="#949397" transform="translate(447,128)"/>
<path d="M0 0 C0.33 0 0.66 0 1 0 C1.309375 1.134375 1.61875 2.26875 1.9375 3.4375 C2.62924531 6.78775099 2.62924531 6.78775099 4 8 C4.66 7.34 5.32 6.68 6 6 C5.39174965 10.34464536 4.73832608 14.67551867 4 19 C3.34 18.01 2.68 17.02 2 16 C-0.61047965 20.84803364 -2.36041242 25.76727367 -4 31 C-4.66 31 -5.32 31 -6 31 C-6.46824711 23.19588149 -5.5269473 14.0538946 -2 7 C-1.34 7 -0.68 7 0 7 C0 4.69 0 2.38 0 0 Z " fill="#8B8C94" transform="translate(360,161)"/>
<path d="M0 0 C0.66 0 1.32 0 2 0 C2.58219671 8.73295067 0.42265988 17.08143395 -5 24 C-5.99 23.67 -6.98 23.34 -8 23 C-8.33 23.66 -8.66 24.32 -9 25 C-10.30915279 26.03145371 -11.64082143 27.03542166 -13 28 C-13.33 27.34 -13.66 26.68 -14 26 C-13.54625 25.608125 -13.0925 25.21625 -12.625 24.8125 C-10.70285957 22.66857413 -9.98525119 20.69301991 -9 18 C-8.68417969 17.38511719 -8.36835938 16.77023438 -8.04296875 16.13671875 C-6.94138769 13.87992159 -6.14763992 11.63815974 -5.375 9.25 C-5.11460937 8.45078125 -4.85421875 7.6515625 -4.5859375 6.828125 C-4.39257812 6.22484375 -4.19921875 5.6215625 -4 5 C-3.01 5 -2.02 5 -1 5 C-0.67 3.35 -0.34 1.7 0 0 Z " fill="#999599" transform="translate(510,158)"/>
<path d="M0 0 C7.81515187 -0.09299735 15.63017223 -0.16391473 23.44573975 -0.20724869 C27.07551731 -0.22805515 30.70491415 -0.25624354 34.33447266 -0.30175781 C37.84231263 -0.34546659 41.3497882 -0.36918921 44.85787964 -0.37950897 C46.83644644 -0.39041254 48.81486821 -0.42159835 50.79321289 -0.45318604 C57.99726164 -0.4549691 62.94252987 -0.04135432 69 4 C69.99 5.485 69.99 5.485 71 7 C70.505 6.71125 70.01 6.4225 69.5 6.125 C66.08247965 4.58711584 62.6493798 3.85152195 59 3 C58.67 3.66 58.34 4.32 58 5 C57.34 4.67 56.68 4.34 56 4 C56 3.34 56 2.68 56 2 C54.91267578 2.17200928 53.82535156 2.34401855 52.70507812 2.52124023 C47.34900376 3.1860507 42.09706527 2.9209473 36.71875 2.66015625 C35.66465942 2.61434921 34.61056885 2.56854218 33.52453613 2.52134705 C30.18270925 2.37468569 26.84139153 2.21873653 23.5 2.0625 C21.2239857 1.96097318 18.94794415 1.86005533 16.671875 1.75976562 C11.11424859 1.51355639 5.5570098 1.25973564 0 1 C0 0.67 0 0.34 0 0 Z " fill="#366B9B" transform="translate(448,33)"/>
<path d="M0 0 C0.66 0 1.32 0 2 0 C1.75065029 12.0141223 -1.16093719 23.38252371 -4 35 C-4.66 33.68 -5.32 32.36 -6 31 C-6.66 31.66 -7.32 32.32 -8 33 C-8.19622241 28.78121808 -7.80230168 25.82989106 -6 22 C-5.34 22 -4.68 22 -4 22 C-3.34477255 17.55453373 -2.88029308 13.71824151 -3.625 9.25 C-4.07210187 5.37511715 -3.32756202 4.04373496 -1 1 C-0.67 0.67 -0.34 0.34 0 0 Z " fill="#AAA7AC" transform="translate(389,46)"/>
<path d="M0 0 C5.33848672 -0.09894543 10.67643869 -0.17150414 16.015625 -0.21972656 C17.8314748 -0.23983061 19.64725995 -0.26711835 21.46289062 -0.30175781 C24.07438105 -0.35033039 26.68501498 -0.37298027 29.296875 -0.390625 C30.10743347 -0.41127014 30.91799194 -0.43191528 31.75311279 -0.45318604 C35.41848742 -0.45464221 37.55855999 -0.32170466 40.56347656 1.86816406 C42 4 42 4 41.6875 6.5 C41.460625 7.325 41.23375 8.15 41 9 C41.31478446 10.33783393 41.64587656 11.67203709 42 13 C41.67 13.99 41.34 14.98 41 16 C40.34 16 39.68 16 39 16 C38.505 18.475 38.505 18.475 38 21 C37.01 21.33 36.02 21.66 35 22 C34.63288137 17.22745782 35.61966394 13.65395425 37.24609375 9.24609375 C38.05021675 6.85039052 38.52413947 4.47934879 39 2 C33.48227011 2.11806894 27.96472709 2.24230419 22.44726562 2.37231445 C20.56937458 2.41568789 18.69144348 2.45736118 16.81347656 2.49731445 C14.1177156 2.55495876 11.42215673 2.61866981 8.7265625 2.68359375 C7.88380768 2.70030624 7.04105286 2.71701874 6.17276001 2.73423767 C1.9513339 2.73236144 1.9513339 2.73236144 -2 4 C-1.34 2.68 -0.68 1.36 0 0 Z " fill="#4684B5" transform="translate(286,128)"/>
<path d="M0 0 C0.66 0 1.32 0 2 0 C2 0.66 2 1.32 2 2 C3.299375 1.979375 4.59875 1.95875 5.9375 1.9375 C7.29165633 1.91600546 8.64756083 1.92851801 10 2 C10.33 2.33 10.66 2.66 11 3 C12.41570123 3.08651611 13.835595 3.10704904 15.25390625 3.09765625 C16.10791016 3.09443359 16.96191406 3.09121094 17.84179688 3.08789062 C19.18854492 3.07532227 19.18854492 3.07532227 20.5625 3.0625 C21.46419922 3.05798828 22.36589844 3.05347656 23.29492188 3.04882812 C25.53001314 3.03700225 27.76497437 3.0205222 30 3 C30.125 8.75 30.125 8.75 29 11 C28.34 11 27.68 11 27 11 C27 9.35 27 7.7 27 6 C21.06 6 15.12 6 9 6 C10.65 6.99 12.3 7.98 14 9 C14 9.66 14 10.32 14 11 C9.89001881 11.48928347 8.27346616 11.1788048 4.75 8.875 C1.91238749 5.9084051 0.9188371 3.95099951 0 0 Z " fill="#838A97" transform="translate(214,126)"/>
<path d="M0 0 C1.25683594 0.00322266 2.51367188 0.00644531 3.80859375 0.00976562 C5.12730469 0.01814453 6.44601562 0.02652344 7.8046875 0.03515625 C9.14452961 0.04017136 10.4843735 0.04473424 11.82421875 0.04882812 C15.10941956 0.06064539 18.39453147 0.07712008 21.6796875 0.09765625 C19.89453125 2.1171875 19.89453125 2.1171875 17.6796875 4.09765625 C14.2421875 3.78515625 14.2421875 3.78515625 12.171875 3.40625 C9.01676122 3.01556977 6.03923494 3.15337717 2.8671875 3.34765625 C1.76761719 3.4146875 0.66804688 3.48171875 -0.46484375 3.55078125 C-3.58809405 4.14894136 -4.31499904 4.76113486 -6.3203125 7.09765625 C-7.3103125 7.42765625 -8.3003125 7.75765625 -9.3203125 8.09765625 C-9.9803125 8.75765625 -10.6403125 9.41765625 -11.3203125 10.09765625 C-11.3203125 8.44765625 -11.3203125 6.79765625 -11.3203125 5.09765625 C-10.6603125 5.09765625 -10.0003125 5.09765625 -9.3203125 5.09765625 C-9.1965625 4.45828125 -9.0728125 3.81890625 -8.9453125 3.16015625 C-8.7390625 2.47953125 -8.5328125 1.79890625 -8.3203125 1.09765625 C-5.50207058 -0.31146471 -3.14779968 -0.01417928 0 0 Z " fill="#538CB7" transform="translate(276.3203125,32.90234375)"/>
<path d="M0 0 C2.62450875 4.73666321 2.73121922 9.169474 1.39453125 14.34375 C0.0945268 18.30315441 -1.45141106 22.12852765 -3 26 C7.395 26.99 7.395 26.99 18 28 C18 28.33 18 28.66 18 29 C12.06 29 6.12 29 0 29 C0 29.66 0 30.32 0 31 C0.66 31 1.32 31 2 31 C1.67 31.66 1.34 32.32 1 33 C-4.44617657 27.97276009 -4.44617657 27.97276009 -5 24 C-4.765625 21.9140625 -4.765625 21.9140625 -4.25 19.625 C-4.06179688 18.76390625 -3.87359375 17.9028125 -3.6796875 17.015625 C-3.45539063 16.02046875 -3.23109375 15.0253125 -3 14 C-2.45692786 11.45863327 -1.91529485 8.91695863 -1.375 6.375 C-0.91734588 4.24985362 -0.45925112 2.12480184 0 0 Z " fill="#406A8B" transform="translate(316,166)"/>
<path d="M0 0 C0.96854473 3.05569043 0.97503246 4.92591001 0.125 8 C-0.79760327 11.72731721 -1.24074549 15.29379443 -1.5 19.125 C-1.82226577 23.70703326 -2.52031636 27.65959465 -4 32 C-4.66 32 -5.32 32 -6 32 C-6 32.66 -6 33.32 -6 34 C-18.54 34 -31.08 34 -44 34 C-44 33.67 -44 33.34 -44 33 C-43.0212793 32.97494385 -42.04255859 32.9498877 -41.03417969 32.92407227 C-37.39619296 32.82976017 -33.75838657 32.72959797 -30.12060547 32.62768555 C-28.54740626 32.58442662 -26.97416283 32.54274526 -25.40087891 32.50268555 C-23.13690885 32.44476338 -20.87315949 32.38113286 -18.609375 32.31640625 C-17.55759064 32.29133751 -17.55759064 32.29133751 -16.48455811 32.26576233 C-13.19766179 32.16648978 -10.14857995 31.99187328 -7 31 C-6.86722656 30.28972656 -6.73445313 29.57945312 -6.59765625 28.84765625 C-6.42105469 27.92855469 -6.24445313 27.00945312 -6.0625 26.0625 C-5.88847656 25.14597656 -5.71445312 24.22945312 -5.53515625 23.28515625 C-5 21 -5 21 -4 20 C-3.55179285 16.91151377 -3.18149574 13.82406589 -2.83789062 10.72265625 C-2.37040996 6.85358859 -1.64003174 3.54082167 0 0 Z " fill="#518AB7" transform="translate(278,160)"/>
<path d="M0 0 C1.11375 0.00966797 2.2275 0.01933594 3.375 0.02929688 C11.58189355 0.14439355 11.58189355 0.14439355 12.75 1.3125 C12.82226502 3.16537502 12.8338122 5.02083878 12.8125 6.875 C12.80347656 7.88691406 12.79445313 8.89882812 12.78515625 9.94140625 C12.77355469 10.72386719 12.76195312 11.50632812 12.75 12.3125 C12.09 12.3125 11.43 12.3125 10.75 12.3125 C11.08 13.9625 11.41 15.6125 11.75 17.3125 C11.09 17.3125 10.43 17.3125 9.75 17.3125 C9.75 20.2825 9.75 23.2525 9.75 26.3125 C8.76 26.3125 7.77 26.3125 6.75 26.3125 C7.1952885 21.03934667 7.83373163 16.29479776 9.75 11.3125 C5.79 10.9825 1.83 10.6525 -2.25 10.3125 C-2.25 9.9825 -2.25 9.6525 -2.25 9.3125 C2.37 9.3125 6.99 9.3125 11.75 9.3125 C11.75 7.0025 11.75 4.6925 11.75 2.3125 C0.365 1.8175 0.365 1.8175 -11.25 1.3125 C-11.25 1.9725 -11.25 2.6325 -11.25 3.3125 C-12.53965176 4.68812854 -13.87689293 6.02016393 -15.25 7.3125 C-15.91 7.9725 -16.57 8.6325 -17.25 9.3125 C-17.5625 7.0625 -17.5625 7.0625 -17.25 4.3125 C-12.71975866 -1.24688302 -6.54757067 -0.1729112 0 0 Z " fill="#36668C" transform="translate(471.25,62.6875)"/>
<path d="M0 0 C0.33 0 0.66 0 1 0 C0.98839844 1.24136719 0.97679687 2.48273438 0.96484375 3.76171875 C0.95546132 5.40364432 0.9463616 7.04557153 0.9375 8.6875 C0.92912109 9.50412109 0.92074219 10.32074219 0.91210938 11.16210938 C0.89557949 15.24499084 0.96964902 19.01651707 2 23 C3.32 23.33 4.64 23.66 6 24 C6.061875 24.886875 6.12375 25.77375 6.1875 26.6875 C7.18679892 30.76156481 8.92876288 32.23588659 12 35 C12.33 35.66 12.66 36.32 13 37 C12.34 37 11.68 37 11 37 C10.67 37.66 10.34 38.32 10 39 C9.5978125 38.071875 9.5978125 38.071875 9.1875 37.125 C8.04443152 34.7004767 8.04443152 34.7004767 5 33 C3.94773272 31.02699884 2.95211112 29.02323613 2 27 C1.195625 25.700625 1.195625 25.700625 0.375 24.375 C-4.01879207 16.78572279 -1.85666738 8.08976499 0 0 Z " fill="#2C5579" transform="translate(395,152)"/>
<path d="M0 0 C1.5159375 0.2475 1.5159375 0.2475 3.0625 0.5 C6.9586792 1.08976757 6.9586792 1.08976757 10.75 0.9375 C14 1 14 1 17 3 C17 3.99 17 4.98 17 6 C14.04210873 6.2210949 11.08447236 6.42740245 8.125 6.625 C6.86236328 6.72167969 6.86236328 6.72167969 5.57421875 6.8203125 C4.36572266 6.89765625 4.36572266 6.89765625 3.1328125 6.9765625 C2.38918457 7.02893066 1.64555664 7.08129883 0.87939453 7.13525391 C-1 7 -1 7 -3 5 C-2.01 3.35 -1.02 1.7 0 0 Z " fill="#9B9499" transform="translate(465,66)"/>
<path d="M0 0 C0.66 0.33 1.32 0.66 2 1 C2 4 2 7 2 10 C1.67 9.01 1.34 8.02 1 7 C-1.16231155 7.96931207 -2.81466827 8.81466827 -4.5 10.5 C-7.66055404 13.66055404 -11.82110329 14.67035105 -16 16 C-13.3087813 9.94475792 -9.56659016 6.47911885 -4 3 C-2.65824027 2.01133494 -1.32103998 1.0161846 0 0 Z " fill="#2D78B2" transform="translate(437,37)"/>
<path d="M0 0 C2.97 0.33 5.94 0.66 9 1 C9.84454356 4.37817425 10.10844919 6.67465243 9 10 C8.01 10 7.02 10 6 10 C5.88930176 10.57443848 5.77860352 11.14887695 5.66455078 11.74072266 C5.15550671 14.36963602 4.64030556 16.99730712 4.125 19.625 C3.95097656 20.52863281 3.77695312 21.43226562 3.59765625 22.36328125 C2.67623333 27.03864938 1.6538714 31.51517755 0 36 C-0.33 36 -0.66 36 -1 36 C-0.6248485 29.31195421 0.34333359 23.21694765 2.234375 16.79296875 C3.47806494 12.25603862 4.23741206 7.63832899 5 3 C3.35 2.67 1.7 2.34 0 2 C0 1.34 0 0.68 0 0 Z " fill="#518AB5" transform="translate(299,32)"/>
<path d="M0 0 C0.99 0.66 1.98 1.32 3 2 C3.4670898 7.51165965 2.73883423 11.78349732 1 17 C-0.65 17.33 -2.3 17.66 -4 18 C-3.67 13.38 -3.34 8.76 -3 4 C-2.34 4 -1.68 4 -1 4 C-0.67 2.68 -0.34 1.36 0 0 Z " fill="#97969B" transform="translate(301,72)"/>
<path d="M0 0 C0 1.32 0 2.64 0 4 C-9.9 4 -19.8 4 -30 4 C-26.36781347 1.57854231 -23.16449504 1.31985069 -18.9375 0.875 C-18.17832275 0.79008301 -17.41914551 0.70516602 -16.63696289 0.61767578 C-11.06409422 0.02793539 -5.60602772 -0.17796913 0 0 Z " fill="#A6A7AA" transform="translate(400,135)"/>
<path d="M0 0 C0.33 0 0.66 0 1 0 C2.46394384 13.15571155 2.46394384 13.15571155 0 20 C-0.69782839 24.04740468 -1.12443218 27.8937379 -1 32 C-1.99 31.67 -2.98 31.34 -4 31 C-4.7723236 20.25182992 -2.43307134 10.38400091 0 0 Z " fill="#828C9F" transform="translate(442,128)"/>
<path d="M0 0 C-0.33 2.31 -0.66 4.62 -1 7 C-1.495 5.515 -1.495 5.515 -2 4 C-3.3929126 4.01571045 -3.3929126 4.01571045 -4.81396484 4.03173828 C-8.2542569 4.06579204 -11.69437027 4.09088493 -15.13476562 4.10986328 C-16.6247032 4.11993043 -18.11462097 4.13358518 -19.60449219 4.15087891 C-21.74419028 4.17509653 -23.88362753 4.18647564 -26.0234375 4.1953125 C-27.31169434 4.20578613 -28.59995117 4.21625977 -29.92724609 4.22705078 C-33 4 -33 4 -35 2 C-33.0625 1.4375 -33.0625 1.4375 -31 1 C-30.67 1.33 -30.34 1.66 -30 2 C-28.32552547 2.02891557 -26.64971141 1.98668331 -24.9765625 1.9140625 C-23.955625 1.87023437 -22.9346875 1.82640625 -21.8828125 1.78125 C-20.80773437 1.7296875 -19.73265625 1.678125 -18.625 1.625 C-17.02398437 1.55925781 -17.02398437 1.55925781 -15.390625 1.4921875 C-10.15150459 1.25464552 -5.14441313 0 0 0 Z " fill="#A6A7AC" transform="translate(324,135)"/>
<path d="M0 0 C3.0234375 3.578125 3.0234375 3.578125 2.8125 7.375 C2.06771284 10.69789658 1.0949007 13.77970381 0 17 C-0.29890059 18.54028049 -0.59011192 20.08206632 -0.875 21.625 C-1.68214995 25.48499935 -2.78576497 27.53575315 -6 30 C-5.31261551 23.36318424 -3.95828166 16.99207631 -2.4375 10.5 C-2.20353516 9.48679687 -1.96957031 8.47359375 -1.72851562 7.4296875 C-1.15590618 4.95227521 -0.57965985 2.47577035 0 0 Z " fill="#2A6FA2" transform="translate(474,106)"/>
<path d="M0 0 C2.9765625 2.6640625 2.9765625 2.6640625 3.1875 5.6875 C3.125625 6.450625 3.06375 7.21375 3 8 C3.66 8.33 4.32 8.66 5 9 C4.34 9 3.68 9 3 9 C3.33 9.99 3.66 10.98 4 12 C3.6875 14.125 3.6875 14.125 3 16 C2.34 16.33 1.68 16.66 1 17 C0.731875 17.66 0.46375 18.32 0.1875 19 C-1 21 -1 21 -3.625 21.75 C-4.40875 21.8325 -5.1925 21.915 -6 22 C-5.53980469 21.35675781 -5.07960938 20.71351563 -4.60546875 20.05078125 C-2.55629214 16.15684711 -1.97437505 12.50234661 -1.3125 8.1875 C-1.18294922 7.39923828 -1.05339844 6.61097656 -0.91992188 5.79882812 C-0.60387031 3.86740187 -0.30063711 1.93388555 0 0 Z " fill="#24669C" transform="translate(467,136)"/>
<path d="M0 0 C0.98120464 3.05263664 0.98120464 4.94736336 0 8 C0.66 8.33 1.32 8.66 2 9 C0.02 18.24 -1.96 27.48 -4 37 C-6.63629436 33.04555846 -5.87347621 30.43670457 -5 26 C-4.48468671 23.87365464 -3.96342741 21.74874498 -3.4375 19.625 C-2.22377975 14.60673358 -1.75654439 10.16821227 -2.08984375 5.0234375 C-2 3 -2 3 0 0 Z " fill="#8D8B8E" transform="translate(517,124)"/>
<path d="M0 0 C0.66 0.33 1.32 0.66 2 1 C-2.1197851 5.24852839 -6.46594551 9.19608152 -11 13 C-11.65355469 13.55042969 -12.30710937 14.10085937 -12.98046875 14.66796875 C-16.20954363 16.7977841 -19.18694429 16.68224536 -23 17 C-20.79133632 13.5126363 -18.95253048 12.18575914 -15 11 C-14.01 11 -13.02 11 -12 11 C-11.9175 10.38125 -11.835 9.7625 -11.75 9.125 C-11 7 -11 7 -9.1875 5.875 C-8.465625 5.58625 -7.74375 5.2975 -7 5 C-6.319375 4.649375 -5.63875 4.29875 -4.9375 3.9375 C-3 3 -3 3 0 2 C0 1.34 0 0.68 0 0 Z " fill="#2974B0" transform="translate(495,175)"/>
<path d="M0 0 C13.53 0 27.06 0 41 0 C41.99 4.29 42.98 8.58 44 13 C43.34 13.33 42.68 13.66 42 14 C41.505 12.515 41.505 12.515 41 11 C40.34 11 39.68 11 39 11 C38.67 12.32 38.34 13.64 38 15 C38.14295891 13.60386935 38.28951558 12.20810692 38.4375 10.8125 C38.51871094 10.03519531 38.59992188 9.25789063 38.68359375 8.45703125 C39.00597621 5.95359214 39.50498105 3.47509476 40 1 C26.8 1 13.6 1 0 1 C0 0.67 0 0.34 0 0 Z " fill="#385E81" transform="translate(346,33)"/>
<path d="M0 0 C1.34108671 2.68217342 0.81472015 4.14561587 0.328125 7.09375 C0.15796875 8.125 -0.0121875 9.15625 -0.1875 10.21875 C-0.373125 11.3015625 -0.55875 12.384375 -0.75 13.5 C-0.92015625 14.551875 -1.0903125 15.60375 -1.265625 16.6875 C-2.37918222 23.30333997 -3.89648166 29.62893768 -6 36 C-6.66 36 -7.32 36 -8 36 C-7.86722656 35.3709375 -7.73445313 34.741875 -7.59765625 34.09375 C-6.49250818 28.73741189 -5.60395788 23.43562094 -5 18 C-4.34 18 -3.68 18 -3 18 C-3.33 17.34 -3.66 16.68 -4 16 C-4.64047462 9.72334872 -2.77302561 5.45939417 0 0 Z " fill="#3A75AA" transform="translate(448,96)"/>
<path d="M0 0 C0.33 0 0.66 0 1 0 C1.31553089 5.8899099 0.72050095 11.33764982 -0.375 17.125 C-0.50108643 17.79337891 -0.62717285 18.46175781 -0.75708008 19.15039062 C-1.6188387 23.5156308 -2.72808145 27.74183789 -4 32 C-4.33 30.68 -4.66 29.36 -5 28 C-5.66 28 -6.32 28 -7 28 C-7 26.35 -7 24.7 -7 23 C-6.34 22.67 -5.68 22.34 -5 22 C-4.41383856 19.79158772 -4.41383856 19.79158772 -4.0625 17.125 C-3.10593569 11.28613146 -1.64737365 5.67794786 0 0 Z " fill="#8F8E91" transform="translate(454,100)"/>
<path d="M0 0 C0.66 0 1.32 0 2 0 C1.74481433 9.45462921 0.90749224 17.258122 -3 26 C-5.48233348 22.27649978 -5.54322777 19.31433067 -5 15 C-4.19002181 12.50920001 -3.17696713 10.35393425 -2 8 C-1.34 8 -0.68 8 0 8 C0 5.36 0 2.72 0 0 Z " fill="#929295" transform="translate(308,46)"/>
<path d="M0 0 C1.09506492 3.28519475 1.09960608 5.73663415 1.0625 9.1875 C1.05347656 10.27417969 1.04445313 11.36085937 1.03515625 12.48046875 C1.02355469 13.31191406 1.01195312 14.14335937 1 15 C2.65 15.33 4.3 15.66 6 16 C6.33 15.34 6.66 14.68 7 14 C12.28 14 17.56 14 23 14 C22 16 22 16 20.20800781 16.61889648 C17.97728368 17.00392085 15.93403161 17.11381451 13.671875 17.09765625 C12.87265625 17.09443359 12.0734375 17.09121094 11.25 17.08789062 C10.425 17.07951172 9.6 17.07113281 8.75 17.0625 C7.90953125 17.05798828 7.0690625 17.05347656 6.203125 17.04882812 C4.13538599 17.03707961 2.06768376 17.01914522 0 17 C-0.33 16.01 -0.66 15.02 -1 14 C-1.66 14 -2.32 14 -3 14 C-4.16516703 10.60548006 -3.83093313 8.65924103 -2.625 5.3125 C-2.34914063 4.52488281 -2.07328125 3.73726562 -1.7890625 2.92578125 C-1 1 -1 1 0 0 Z " fill="#34638F" transform="translate(438,144)"/>
<path d="M0 0 C0.33 0 0.66 0 1 0 C1.05425226 2.39614126 1.09379027 4.79103853 1.125 7.1875 C1.14175781 7.86103516 1.15851563 8.53457031 1.17578125 9.22851562 C1.21538674 13.28807807 0.80020002 16.34998815 -1 20 C-1.66 20 -2.32 20 -3 20 C-2.67 20.66 -2.34 21.32 -2 22 C-1.93003986 23.70702735 -1.91559846 25.41668003 -1.9375 27.125 C-1.94652344 28.03507812 -1.95554688 28.94515625 -1.96484375 29.8828125 C-1.98224609 30.93082031 -1.98224609 30.93082031 -2 32 C-2.99 32 -3.98 32 -5 32 C-5.56391518 24.24616627 -3.85684196 17.4438092 -1.97265625 9.98828125 C-1.13902352 6.67982606 -0.50515273 3.37654718 0 0 Z " fill="#356F8F" transform="translate(237,161)"/>
<path d="M0 0 C0.66 0 1.32 0 2 0 C2.42765417 6.41481258 0.85743168 11.88595404 -1 18 C-2.32 18 -3.64 18 -5 18 C-4.43465035 12.57264332 -3.01959288 8.0489822 -1 3 C-0.67 2.01 -0.34 1.02 0 0 Z " fill="#AAAAAF" transform="translate(510,158)"/>
<path d="M0 0 C8.58 0 17.16 0 26 0 C25.01 1.65 24.02 3.3 23 5 C23 5.33 23 5.66 23 6 C21.35 6 19.7 6 18 6 C17.67 5.01 17.34 4.02 17 3 C14.36 3 11.72 3 9 3 C9 2.67 9 2.34 9 2 C6.03 1.67 3.06 1.34 0 1 C0 0.67 0 0.34 0 0 Z " fill="#224C84" transform="translate(383,88)"/>
<path d="M0 0 C1.63984529 0.00031732 3.27971127 0.01165397 4.91943359 0.03173828 C6.21365738 0.03598312 6.21365738 0.03598312 7.5340271 0.04031372 C10.29544829 0.05152746 13.05654759 0.07663394 15.81787109 0.10205078 C17.68765808 0.11207905 19.55745015 0.12120517 21.42724609 0.12939453 C26.01591218 0.15147066 30.60433702 0.18600844 35.19287109 0.22705078 C35.19287109 1.87705078 35.19287109 3.52705078 35.19287109 5.22705078 C34.69432617 4.73809326 34.19578125 4.24913574 33.68212891 3.74536133 C30.28376291 1.67254472 27.22094361 1.85150447 23.36474609 1.93408203 C22.61574036 1.93832687 21.86673462 1.94257172 21.09503174 1.94694519 C18.71060735 1.96369333 16.32703856 2.00133681 13.94287109 2.03955078 C12.32309166 2.05460269 10.70329894 2.06829021 9.08349609 2.08056641 C5.11962644 2.11358398 1.15639367 2.16533832 -2.80712891 2.22705078 C-3.46712891 4.53705078 -4.12712891 6.84705078 -4.80712891 9.22705078 C-5.13712891 9.22705078 -5.46712891 9.22705078 -5.80712891 9.22705078 C-5.93212891 5.85205078 -5.93212891 5.85205078 -5.80712891 2.22705078 C-3.80712891 0.22705078 -3.80712891 0.22705078 0 0 Z " fill="#6B8AAA" transform="translate(289.80712890625,129.77294921875)"/>
<path d="M0 0 C0.66 0.33 1.32 0.66 2 1 C2.2067796 7.41016775 2.16271796 13.8819369 0 20 C-0.99 20.66 -1.98 21.32 -3 22 C-2.8859425 19.08252927 -2.75919732 16.16655505 -2.625 13.25 C-2.5940625 12.425 -2.563125 11.6 -2.53125 10.75 C-2.47324219 9.55117187 -2.47324219 9.55117187 -2.4140625 8.328125 C-2.3826416 7.5949707 -2.3512207 6.86181641 -2.31884766 6.10644531 C-1.96227477 3.75077082 -1.16337117 2.06549409 0 0 Z " fill="#A7A9AE" transform="translate(283,163)"/>
<path d="M0 0 C0 0.66 0 1.32 0 2 C-10.39113779 3.30618118 -20.51074452 4.33358056 -31 4 C-31.33 4.66 -31.66 5.32 -32 6 C-32 4.68 -32 3.36 -32 2 C-30.7934375 1.93941406 -29.586875 1.87882813 -28.34375 1.81640625 C-26.72915876 1.73192182 -25.11457586 1.64727789 -23.5 1.5625 C-22.31277344 1.50352539 -22.31277344 1.50352539 -21.1015625 1.44335938 C-17.25377125 1.2383541 -13.4471055 0.96500725 -9.625 0.46875 C-6.3629254 0.04693001 -3.28307258 -0.08207681 0 0 Z " fill="#9E999B" transform="translate(400,133)"/>
<path d="M0 0 C-1.86774768 2.80162152 -3.37799925 4.9023994 -6 7 C-8.75 6.75 -8.75 6.75 -11 6 C-11 5.34 -11 4.68 -11 4 C-12.32 3.34 -13.64 2.68 -15 2 C-9.87080814 -0.10428384 -5.4389165 -0.21755666 0 0 Z " fill="#4B96CC" transform="translate(233,89)"/>
<path d="M0 0 C0.99 0 1.98 0 3 0 C5.45811625 3.68717438 5.31118164 5.64345704 5 10 C4.01 11.485 4.01 11.485 3 13 C3.33 10.03 3.66 7.06 4 4 C3.10869587 6.6739124 2.52268466 9.23723823 2 12 C1.01 12.33 0.02 12.66 -1 13 C-2.20577428 8.05632546 -1.6290678 4.79137588 0 0 Z " fill="#7B7D85" transform="translate(306,42)"/>
<path d="M0 0 C0.24410203 4.14973452 -0.60353358 7.10459366 -2 11 C-2.54989158 12.78915943 -3.09110241 14.5810029 -3.625 16.375 C-3.88539063 17.24898437 -4.14578125 18.12296875 -4.4140625 19.0234375 C-4.60742188 19.67570312 -4.80078125 20.32796875 -5 21 C-5.66 21 -6.32 21 -7 21 C-6.57550212 14.12020672 -5.70240894 7.40044223 -3 1 C-1 0 -1 0 0 0 Z " fill="#8690A0" transform="translate(388,43)"/>
<path d="M0 0 C12.21 0 24.42 0 37 0 C37 0.33 37 0.66 37 1 C21.655 1.495 21.655 1.495 6 2 C6.33 2.99 6.66 3.98 7 5 C6.01 5.33 5.02 5.66 4 6 C2.68 4.02 1.36 2.04 0 0 Z " fill="#6F7E8F" transform="translate(234,194)"/>
<path d="M0 0 C0.33 0 0.66 0 1 0 C1.05391993 1.79133978 1.09275571 3.58313899 1.125 5.375 C1.14820313 6.37273437 1.17140625 7.37046875 1.1953125 8.3984375 C1 11 1 11 -1 13 C-1.55228066 15.02429322 -1.55228066 15.02429322 -1.8515625 17.3515625 C-1.98046875 18.20234375 -2.109375 19.053125 -2.2421875 19.9296875 C-2.36851562 20.81914062 -2.49484375 21.70859375 -2.625 22.625 C-2.7590625 23.5221875 -2.893125 24.419375 -3.03125 25.34375 C-3.3615559 27.56151817 -3.6841425 29.78013575 -4 32 C-4.66 32 -5.32 32 -6 32 C-4.89197701 21.03640409 -2.91117506 10.62720217 0 0 Z " fill="#768CA7" transform="translate(515,112)"/>
<path d="M0 0 C0.33 0 0.66 0 1 0 C1.2125756 4.4640875 0.69544479 7.85557941 -1 12 C-1.66 12.66 -2.32 13.32 -3 14 C-3.99 14 -4.98 14 -6 14 C-6.66 15.65 -7.32 17.3 -8 19 C-8.99 19 -9.98 19 -11 19 C-10.05016642 17.49460339 -9.08988109 15.99579653 -8.125 14.5 C-7.59132813 13.6646875 -7.05765625 12.829375 -6.5078125 11.96875 C-6.01023437 11.3190625 -5.51265625 10.669375 -5 10 C-4.34 10 -3.68 10 -3 10 C-2.87625 9.278125 -2.7525 8.55625 -2.625 7.8125 C-2.0095069 5.04278106 -1.11555626 2.6029646 0 0 Z " fill="#788AA1" transform="translate(505,160)"/>
<path d="M0 0 C0.33 0 0.66 0 1 0 C1.09688221 5.44693314 1.12862175 10.63904667 0 16 C-0.66 16 -1.32 16 -2 16 C-1.94779297 17.01320312 -1.94779297 17.01320312 -1.89453125 18.046875 C-1.85392578 19.38492188 -1.85392578 19.38492188 -1.8125 20.75 C-1.76029297 22.07257813 -1.76029297 22.07257813 -1.70703125 23.421875 C-2.05076316 26.44671583 -3.00227459 27.75583602 -5 30 C-3.96048947 19.78833775 -2.59597227 9.95122705 0 0 Z " fill="#778FA8" transform="translate(279,160)"/>
<path d="M0 0 C3.465 1.98 3.465 1.98 7 4 C7 4.99 7 5.98 7 7 C7.66 7.33 8.32 7.66 9 8 C8.67 9.65 8.34 11.3 8 13 C6.5 11.625 6.5 11.625 5 10 C5 9.34 5 8.68 5 8 C4.01 8.33 3.02 8.66 2 9 C0 2.25 0 2.25 0 0 Z " fill="#4792C9" transform="translate(207,111)"/>
<path d="M0 0 C0.66 0 1.32 0 2 0 C1.32418477 6.08233706 0.26361972 12.01314152 -1 18 C-1.66 18 -2.32 18 -3 18 C-2.8863485 15.37405216 -2.75960946 12.74988453 -2.625 10.125 C-2.5940625 9.37863281 -2.563125 8.63226563 -2.53125 7.86328125 C-2.2265625 2.2265625 -2.2265625 2.2265625 0 0 Z " fill="#9F9DA3" transform="translate(522,105)"/>
<path d="M0 0 C0.33 0 0.66 0 1 0 C1 3.96 1 7.92 1 12 C0.34 12 -0.32 12 -1 12 C-1.33 13.65 -1.66 15.3 -2 17 C-2.99 17.33 -3.98 17.66 -5 18 C-4.34 13.71 -3.68 9.42 -3 5 C-2.34 5 -1.68 5 -1 5 C-0.67 3.35 -0.34 1.7 0 0 Z " fill="#9E9DA1" transform="translate(362,172)"/>
<path d="M0 0 C6.93 0 13.86 0 21 0 C21 0.33 21 0.66 21 1 C19.84242188 1.02578125 18.68484375 1.0515625 17.4921875 1.078125 C15.95308872 1.13443349 14.41402767 1.1917802 12.875 1.25 C11.73417969 1.27126953 11.73417969 1.27126953 10.5703125 1.29296875 C5.31301577 1.51957637 2.15532564 2.5034455 -2 6 C-3.88568694 9.10014929 -3.88568694 9.10014929 -5 12 C-5.75 10.375 -5.75 10.375 -6 8 C-4.1875 4.75 -4.1875 4.75 -2 2 C-1.34 2 -0.68 2 0 2 C0 1.34 0 0.68 0 0 Z " fill="#6B86A1" transform="translate(460,64)"/>
<path d="M0 0 C1.27617187 0.00483398 1.27617187 0.00483398 2.578125 0.00976562 C3.46757812 0.01814453 4.35703125 0.02652344 5.2734375 0.03515625 C6.170625 0.03966797 7.0678125 0.04417969 7.9921875 0.04882812 C10.21100398 0.06063034 12.42968768 0.0770947 14.6484375 0.09765625 C14.6484375 2.40765625 14.6484375 4.71765625 14.6484375 7.09765625 C14.1740625 6.43765625 13.6996875 5.77765625 13.2109375 5.09765625 C9.88836003 2.50442506 7.91191138 2.83195055 3.83203125 3.01953125 C0.16642597 3.15067992 -2.90423734 2.24676464 -6.3515625 1.09765625 C-4.00303722 -0.07660639 -2.61382185 -0.01742548 0 0 Z " fill="#858A99" transform="translate(468.3515625,64.90234375)"/>
<path d="M0 0 C1.10620762 3.31862287 0.68871202 5.46006971 0.19140625 8.859375 C-0.09389542 12.05009567 0.41127327 14.86012411 1 18 C0.01 18 -0.98 18 -2 18 C-2.33 19.98 -2.66 21.96 -3 24 C-3.66 24 -4.32 24 -5 24 C-1.92482916 7.1070615 -1.92482916 7.1070615 0 0 Z " fill="#7A92AB" transform="translate(305,40)"/>
<path d="M0 0 C2 1 2 1 4 4 C1.36 4.66 -1.28 5.32 -4 6 C-4.144375 6.78375 -4.28875 7.5675 -4.4375 8.375 C-5 11 -5 11 -6 13 C-8 12 -8 12 -9 10 C-6.43571997 5.82117329 -3.98069267 2.87494471 0 0 Z " fill="#3D779F" transform="translate(217,90)"/>
<path d="M0 0 C0.33 0 0.66 0 1 0 C1.12513034 7.3826903 1.12513034 7.3826903 0.53125 10.3125 C-0.1271831 13.64339688 -0.34091168 16.92536429 -0.5625 20.3125 C-0.64628906 21.56675781 -0.73007812 22.82101563 -0.81640625 24.11328125 C-0.87699219 25.06589844 -0.93757812 26.01851562 -1 27 C-1.33 26.01 -1.66 25.02 -2 24 C-2.66 24 -3.32 24 -4 24 C-2.07289294 7.1070615 -2.07289294 7.1070615 0 0 Z " fill="#8191A6" transform="translate(525,66)"/>
<path d="M0 0 C0.33 0 0.66 0 1 0 C0.38084586 7.07139204 -0.55219395 14.07312727 -1.59765625 21.09375 C-2.04571099 23.84118951 -2.04571099 23.84118951 -2 26 C-2.99 26 -3.98 26 -5 26 C-5.32784311 19.95949073 -4.13093049 14.85891514 -2.5 9.0625 C-2.26152344 8.18787109 -2.02304687 7.31324219 -1.77734375 6.41210938 C-1.19273616 4.27244561 -0.60015656 2.13534428 0 0 Z " fill="#768FA9" transform="translate(380,64)"/>
<path d="M0 0 C0.66 0 1.32 0 2 0 C2 0.99 2 1.98 2 3 C-3.43633013 5.43204243 -8.27967864 5.1704948 -14 4 C-15.32 3.34 -16.64 2.68 -18 2 C-12.06 2 -6.12 2 0 2 C0 1.34 0 0.68 0 0 Z " fill="#808695" transform="translate(352,192)"/>
<path d="M0 0 C0.33 0 0.66 0 1 0 C1.05416188 1.60379341 1.09286638 3.20811406 1.125 4.8125 C1.14820313 5.70582031 1.17140625 6.59914063 1.1953125 7.51953125 C1 10 1 10 -1 13 C-1.45915507 15.96842658 -1.45915507 15.96842658 -1.625 19.1875 C-1.69976562 20.27417969 -1.77453125 21.36085938 -1.8515625 22.48046875 C-1.90054687 23.31191406 -1.94953125 24.14335938 -2 25 C-2.66 25 -3.32 25 -4 25 C-4.33 25.66 -4.66 26.32 -5 27 C-4.30747236 21.90592649 -3.45792602 16.86295152 -2.5 11.8125 C-2.36980469 11.11447266 -2.23960937 10.41644531 -2.10546875 9.69726562 C-1.4917274 6.43947697 -0.86062739 3.20252692 0 0 Z " fill="#6D87A4" transform="translate(453,76)"/>
<path d="M0 0 C-0.33 5.28 -0.66 10.56 -1 16 C-1.66 16 -2.32 16 -3 16 C-5.68659939 11.52233435 -4.70581094 7.9509157 -3.703125 3.109375 C-3.47109375 2.41328125 -3.2390625 1.7171875 -3 1 C-1 0 -1 0 0 0 Z " fill="#A4A3A7" transform="translate(369,145)"/>
<path d="M0 0 C1.32 0 2.64 0 4 0 C3.88490339 1.41750563 3.75746342 2.83401169 3.625 4.25 C3.55539062 5.03890625 3.48578125 5.8278125 3.4140625 6.640625 C2.98492887 9.085877 2.21399362 10.84836903 1 13 C0.67 11.68 0.34 10.36 0 9 C-0.66 9.66 -1.32 10.32 -2 11 C-2.19622241 6.78121808 -1.80230168 3.82989106 0 0 Z " fill="#86858B" transform="translate(383,68)"/>
<path d="M0 0 C0.33 0 0.66 0 1 0 C1.16032995 5.87876496 0.6092534 11.23388095 -0.5 17 C-0.64308594 17.77472656 -0.78617187 18.54945312 -0.93359375 19.34765625 C-1.28272329 21.23295579 -1.64045316 23.11665939 -2 25 C-2.33 25 -2.66 25 -3 25 C-3 19.39 -3 13.78 -3 8 C-2.34 8 -1.68 8 -1 8 C-0.67 5.36 -0.34 2.72 0 0 Z " fill="#728EA9" transform="translate(299,64)"/>
<path d="M0 0 C2.475 0.495 2.475 0.495 5 1 C4.67 1.66 4.34 2.32 4 3 C7.17320782 6.53586014 9.16743695 8.58578031 14 9 C12 11 12 11 9.61328125 11.36328125 C6.22407926 10.89213658 5.34166561 9.79221005 3.1875 7.1875 C2.58292969 6.47980469 1.97835938 5.77210938 1.35546875 5.04296875 C0 3 0 3 0 0 Z " fill="#82848A" transform="translate(406,189)"/>
<path d="M0 0 C0.99 0.33 1.98 0.66 3 1 C3.061875 1.886875 3.12375 2.77375 3.1875 3.6875 C4.18679892 7.76156481 5.92876288 9.23588659 9 12 C9.33 12.66 9.66 13.32 10 14 C9.34 14 8.68 14 8 14 C7.67 14.66 7.34 15.32 7 16 C6.731875 15.38125 6.46375 14.7625 6.1875 14.125 C5.04443152 11.7004767 5.04443152 11.7004767 2 10 C1.26953125 7.6171875 1.26953125 7.6171875 0.8125 4.875 C0.65394531 3.96492187 0.49539063 3.05484375 0.33203125 2.1171875 C0.22246094 1.41851562 0.11289062 0.71984375 0 0 Z " fill="#3673A7" transform="translate(398,175)"/>
<path d="M0 0 C0.33 0 0.66 0 1 0 C1.22615016 6.16259181 0.44149898 11.51972719 -1 17.5 C-1.19078125 18.32242188 -1.3815625 19.14484375 -1.578125 19.9921875 C-2.04427304 21.99662407 -2.52102976 23.99858863 -3 26 C-3.33 26 -3.66 26 -4 26 C-4.3690205 16.58997722 -4.3690205 16.58997722 -2 12 C-2.99 11.67 -3.98 11.34 -5 11 C-3.68 10.67 -2.36 10.34 -1 10 C-1.020625 8.72125 -1.04125 7.4425 -1.0625 6.125 C-1.125 2.25 -1.125 2.25 0 0 Z " fill="#3171AB" transform="translate(453,68)"/>
<path d="M0 0 C0.74958984 0.00451172 1.49917969 0.00902344 2.27148438 0.01367188 C4.11852383 0.02543646 5.96552213 0.04337135 7.8125 0.0625 C7.8125 0.3925 7.8125 0.7225 7.8125 1.0625 C6.45705078 1.11857422 6.45705078 1.11857422 5.07421875 1.17578125 C3.89472656 1.24152344 2.71523438 1.30726562 1.5 1.375 C0.32824219 1.43300781 -0.84351563 1.49101563 -2.05078125 1.55078125 C-5.40719998 2.09834147 -6.09354324 2.55619483 -8.1875 5.0625 C-9.1775 5.3925 -10.1675 5.7225 -11.1875 6.0625 C-11.8475 6.7225 -12.5075 7.3825 -13.1875 8.0625 C-13.1875 6.4125 -13.1875 4.7625 -13.1875 3.0625 C-12.5275 3.0625 -11.8675 3.0625 -11.1875 3.0625 C-11.1875 2.4025 -11.1875 1.7425 -11.1875 1.0625 C-7.42449626 -0.19183458 -3.91539091 -0.04445422 0 0 Z " fill="#408CC5" transform="translate(278.1875,34.9375)"/>
<path d="M0 0 C-0.1875 2.375 -0.1875 2.375 -1 5 C-4.34157247 6.94925061 -7.18115446 7.21821974 -11 7 C-4.36842105 0 -4.36842105 0 0 0 Z " fill="#A9A6A7" transform="translate(491,191)"/>
<path d="M0 0 C1.07310858 3.27185553 0.89263102 5.42947592 0.0625 8.75 C-0.13214844 9.54921875 -0.32679688 10.3484375 -0.52734375 11.171875 C-0.76130859 12.07679688 -0.76130859 12.07679688 -1 13 C-1.66 12.01 -2.32 11.02 -3 10 C-3.66 10.99 -4.32 11.98 -5 13 C-5.02712066 11.56260487 -5.04645067 10.12506137 -5.0625 8.6875 C-5.07410156 7.88699219 -5.08570313 7.08648437 -5.09765625 6.26171875 C-5 4 -5 4 -4 1 C-3.01 1.33 -2.02 1.66 -1 2 C-0.67 1.34 -0.34 0.68 0 0 Z " fill="#808084" transform="translate(365,167)"/>
<path d="M0 0 C0.66 0.33 1.32 0.66 2 1 C2.08090971 2.62418745 2.13914995 4.24951745 2.1875 5.875 C2.22230469 6.77992188 2.25710937 7.68484375 2.29296875 8.6171875 C2.19628906 9.40351563 2.09960938 10.18984375 2 11 C1.01 11.66 0.02 12.32 -1 13 C-2.07136051 15.30144109 -3.07989717 17.6340213 -4 20 C-5.09658936 16.71023192 -4.79953138 15.28696233 -4 12 C-3.34 12 -2.68 12 -2 12 C-1.34 8.04 -0.68 4.08 0 0 Z " fill="#3F7EA7" transform="translate(245,128)"/>
<path d="M0 0 C0.66 0.33 1.32 0.66 2 1 C1.125 6.875 1.125 6.875 0 8 C-0.04080783 9.99958364 -0.04254356 12.00045254 0 14 C-1.32 14 -2.64 14 -4 14 C-3.66009167 8.62007164 -3.31442207 4.46726453 0 0 Z " fill="#A8AAB0" transform="translate(382,76)"/>
<path d="M0 0 C0.66 0.33 1.32 0.66 2 1 C2 1.99 2 2.98 2 4 C1.01 4.495 1.01 4.495 0 5 C0.66 5.66 1.32 6.32 2 7 C1.360625 7.268125 0.72125 7.53625 0.0625 7.8125 C-2.33131686 8.88667752 -2.33131686 8.88667752 -3 12 C-3.99 12.33 -4.98 12.66 -6 13 C-3.10933941 3.40546697 -3.10933941 3.40546697 0 0 Z " fill="#286A9D" transform="translate(420,53)"/>
<path d="M0 0 C1.125 1.5 1.125 1.5 2 4 C1.57598348 6.7773082 0.81108065 9.29639783 0 12 C-1.32 11.67 -2.64 11.34 -4 11 C-4 9.02 -4 7.04 -4 5 C-3.01 4.67 -2.02 4.34 -1 4 C-0.26676204 1.98491642 -0.26676204 1.98491642 0 0 Z " fill="#9DA3A4" transform="translate(444,148)"/>
<path d="M0 0 C0.33 0 0.66 0 1 0 C1.20517554 5.76771241 1.21930998 10.57502005 -1 16 C-1.37125 17.11375 -1.7425 18.2275 -2.125 19.375 C-2.41375 20.24125 -2.7025 21.1075 -3 22 C-3.33 22 -3.66 22 -4 22 C-3.51298949 14.40935336 -2.00236413 7.32940833 0 0 Z " fill="#7A8DA5" transform="translate(520,90)"/>
<path d="M0 0 C1.485 0.99 1.485 0.99 3 2 C3 3.32 3 4.64 3 6 C3.66 6 4.32 6 5 6 C4.67 7.65 4.34 9.3 4 11 C3.34 11 2.68 11 2 11 C2 11.66 2 12.32 2 13 C1.34 13 0.68 13 0 13 C0 8.71 0 4.42 0 0 Z " fill="#3F8FC9" transform="translate(259,60)"/>
<path d="M0 0 C0.99 0.33 1.98 0.66 3 1 C3 1.66 3 2.32 3 3 C2.01 3 1.02 3 0 3 C0 3.66 0 4.32 0 5 C-0.66 5 -1.32 5 -2 5 C-2.33 8.3 -2.66 11.6 -3 15 C-3.66 15 -4.32 15 -5 15 C-5.33 15.66 -5.66 16.32 -6 17 C-4.07613169 4.07613169 -4.07613169 4.07613169 0 0 Z " fill="#33617F" transform="translate(267,33)"/>
<path d="M0 0 C3.94120709 0.56302958 6.7508723 1.6791945 10 4 C10 4.66 10 5.32 10 6 C6.67179946 6.22692276 4.58198664 6.32162419 1.625 4.6875 C0 3 0 3 0 0 Z " fill="#928B8D" transform="translate(218,131)"/>
<path d="M0 0 C0.33 1.32 0.66 2.64 1 4 C0.34 4 -0.32 4 -1 4 C-0.979375 5.11375 -0.95875 6.2275 -0.9375 7.375 C-0.94619526 12.23565068 -1.01431997 17.22968062 -2 22 C-2.66 22.33 -3.32 22.66 -4 23 C-4.77302266 19.2207781 -5.02119112 16.68309596 -4 13 C-3.52036591 10.44866908 -3.05494362 7.89527319 -2.59765625 5.33984375 C-2 3 -2 3 0 0 Z " fill="#4787B9" transform="translate(297,68)"/>
<path d="M0 0 C1.125 1.5625 1.125 1.5625 2 4 C1.125 7.75 1.125 7.75 0 11 C-0.66 11 -1.32 11 -2 11 C-2.33 11.99 -2.66 12.98 -3 14 C-3.34615998 8.34605369 -2.43425238 4.96993194 0 0 Z " fill="#9D989D" transform="translate(385,57)"/>
<path d="M0 0 C1.21509795 2.43019591 1.0348327 3.85834379 0.9375 6.5625 C0.87124077 11.62028795 1.68348946 16.13361283 3 21 C0.51011323 19.23298358 -0.81509569 17.74349637 -1.55859375 14.75390625 C-2.23099045 9.30002188 -1.90143303 5.14505407 0 0 Z " fill="#234159" transform="translate(207,101)"/>
<path d="M0 0 C0.66 0 1.32 0 2 0 C2.66 3.63 3.32 7.26 4 11 C3.01 11.495 3.01 11.495 2 12 C1.67 11.01 1.34 10.02 1 9 C0.34 9 -0.32 9 -1 9 C-1.33 10.32 -1.66 11.64 -2 13 C-1.85769192 11.58297487 -1.71099254 10.1663904 -1.5625 8.75 C-1.48128906 7.96109375 -1.40007812 7.1721875 -1.31640625 6.359375 C-1.02365007 4.17635361 -0.57935581 2.1226818 0 0 Z " fill="#587088" transform="translate(386,35)"/>
<path d="M0 0 C0.33 0 0.66 0 1 0 C1.0809723 2.43816585 1.14046972 4.87364384 1.1875 7.3125 C1.22520508 8.34793945 1.22520508 8.34793945 1.26367188 9.40429688 C1.33834499 14.55674183 1.33834499 14.55674183 -0.51171875 16.98046875 C-1.24841797 17.48513672 -1.24841797 17.48513672 -2 18 C-2.23268915 11.71739294 -1.40454548 6.11980533 0 0 Z " fill="#437C9F" transform="translate(237,161)"/>
<path d="M0 0 C0 3.69418201 -1.28179295 5.77836178 -3 9 C-3.66 9 -4.32 9 -5 9 C-3.375 2.25 -3.375 2.25 0 0 Z M-8 7 C-7.34 7.33 -6.68 7.66 -6 8 C-6 11.10551666 -6.5393715 12.35261084 -8 15 C-8.33 15 -8.66 15 -9 15 C-9.125 9.25 -9.125 9.25 -8 7 Z " fill="#4C94C6" transform="translate(216,94)"/>
<path d="M0 0 C0.99 0 1.98 0 3 0 C3.33 0.66 3.66 1.32 4 2 C4.66 2 5.32 2 6 2 C4.25 6.875 4.25 6.875 2 8 C2 7.34 2 6.68 2 6 C1.01 5.67 0.02 5.34 -1 5 C-0.67 3.35 -0.34 1.7 0 0 Z " fill="#2A73B1" transform="translate(402,177)"/>
<path d="M0 0 C1.5625 1.75 1.5625 1.75 3 4 C2.84164571 6.6128457 2.22064124 7.73139327 0.5625 9.75 C-1 11 -1 11 -3 11 C-2.44894091 7.0507432 -1.61064629 3.65079826 0 0 Z " fill="#478FC0" transform="translate(243,141)"/>
<path d="M0 0 C0.33 0 0.66 0 1 0 C1.10832169 2.08218362 1.18573541 4.16599129 1.25 6.25 C1.29640625 7.41015625 1.3428125 8.5703125 1.390625 9.765625 C0.93035506 13.57666013 -0.05148444 14.65511755 -3 17 C-2.36934845 11.2190275 -1.34844868 5.6556294 0 0 Z " fill="#245C7F" transform="translate(471,119)"/>
<path d="M0 0 C0.99 0 1.98 0 3 0 C2.88557539 1.60495567 2.75805306 3.20898119 2.625 4.8125 C2.55539062 5.70582031 2.48578125 6.59914062 2.4140625 7.51953125 C2 10 2 10 0 13 C-1.85072153 7.85910687 -2.21474076 5.04468729 0 0 Z " fill="#ABA9AB" transform="translate(285,150)"/>
<path d="M0 0 C1.12140434 3.31188082 0.87708979 5.07889197 -0.375 8.3125 C-1.80319656 12.25145308 -2.55749572 15.84045977 -3 20 C-3.33 20 -3.66 20 -4 20 C-4.33358143 13.10598384 -3.47557267 7.46470791 -1 1 C-0.67 0.67 -0.34 0.34 0 0 Z " fill="#4780B0" transform="translate(363,140)"/>
<path d="M0 0 C1.5625 1.5625 1.5625 1.5625 3 4 C2.6875 7.75 2.6875 7.75 2 11 C0.02 11.66 -1.96 12.32 -4 13 C-3.525625 12.34 -3.05125 11.68 -2.5625 11 C-0.58682146 7.2066972 -0.35972537 4.24475932 0 0 Z " fill="#255B88" transform="translate(465,145)"/>
<path d="M0 0 C0.66 0.66 1.32 1.32 2 2 C1.7083929 5.79089232 0.81240844 7.52508057 -2 10 C-2.66 10.99 -3.32 11.98 -4 13 C-4.05399736 11.54207116 -4.09279177 10.08357288 -4.125 8.625 C-4.15980469 7.40683594 -4.15980469 7.40683594 -4.1953125 6.1640625 C-4 4 -4 4 -2 2 C-2 2.99 -2 3.98 -2 5 C-1.34 3.35 -0.68 1.7 0 0 Z " fill="#93929B" transform="translate(458,72)"/>
<path d="M0 0 C2.1202151 3.18032265 2.2495865 3.54567399 1.75 7.0625 C1.66234375 7.75472656 1.5746875 8.44695312 1.484375 9.16015625 C1 11 1 11 -1 13 C-2.0070238 7.96488101 -1.97387813 4.76052962 0 0 Z " fill="#2C618A" transform="translate(338,61)"/>
<path d="M0 0 C0.66 0 1.32 0 2 0 C2.05410687 1.77049689 2.09284119 3.54146849 2.125 5.3125 C2.14820313 6.29863281 2.17140625 7.28476563 2.1953125 8.30078125 C2 11 2 11 0 14 C-0.89214652 11.32356043 -1.13540211 9.74615622 -1.125 7 C-1.12757813 6.319375 -1.13015625 5.63875 -1.1328125 4.9375 C-1 3 -1 3 0 0 Z " fill="#9D9B9D" transform="translate(304,58)"/>
<path d="M0 0 C0.66 0.66 1.32 1.32 2 2 C1.875 5.5 1.875 5.5 1 9 C-1.0625 10.4375 -1.0625 10.4375 -3 11 C-2.44894091 7.0507432 -1.61064629 3.65079826 0 0 Z " fill="#B0AFB4" transform="translate(279,187)"/>
<path d="M0 0 C-1.78174788 2.30142435 -3.16304165 3.80034391 -6.046875 4.48828125 C-8.0246611 4.72323102 -10.01271872 4.86751458 -12 5 C-9.56521739 1.22608696 -9.56521739 1.22608696 -7.125 0.25 C-4.73068929 -0.03168361 -2.40866079 -0.06690724 0 0 Z " fill="#3B73A4" transform="translate(484,187)"/>
<path d="M0 0 C0.66 1.32 1.32 2.64 2 4 C1.06725891 5.12894876 0.12859878 6.25300876 -0.8125 7.375 C-1.59560547 8.31472656 -1.59560547 8.31472656 -2.39453125 9.2734375 C-4 11 -4 11 -7 13 C-7 12.01 -7 11.02 -7 10 C-6.34 10 -5.68 10 -5 10 C-4.731875 9.46375 -4.46375 8.9275 -4.1875 8.375 C-2.79166667 5.58333333 -1.39583333 2.79166667 0 0 Z " fill="#878688" transform="translate(502,178)"/>
<path d="M0 0 C1.23104155 3.68400584 0.90767252 6.91474976 0.5625 10.75 C0.46066406 11.92046875 0.35882813 13.0909375 0.25390625 14.296875 C0.17011719 15.18890625 0.08632813 16.0809375 0 17 C-0.99 17.33 -1.98 17.66 -3 18 C-2.41509121 11.85845775 -1.45933748 5.99320151 0 0 Z " fill="#6F8AA7" transform="translate(357,170)"/>
<path d="M0 0 C1.13643966 3.40931897 0.86747764 4.00335456 -0.4375 7.1875 C-0.72496094 7.90292969 -1.01242187 8.61835938 -1.30859375 9.35546875 C-1.53675781 9.89816406 -1.76492188 10.44085938 -2 11 C-2.66 11 -3.32 11 -4 11 C-4.66 12.32 -5.32 13.64 -6 15 C-6.33 14.34 -6.66 13.68 -7 13 C-6.03567924 11.31243867 -5.0268343 9.6502694 -4 8 C-3.43844557 6.75880727 -2.89694852 5.50836104 -2.375 4.25 C-1 1 -1 1 0 0 Z " fill="#3672A6" transform="translate(504,159)"/>
<path d="M0 0 C0.33 0 0.66 0 1 0 C0.67 3.63 0.34 7.26 0 11 C-1.65 11.33 -3.3 11.66 -5 12 C-4.34 11.67 -3.68 11.34 -3 11 C-2.64820803 8.6693782 -2.31669821 6.33564933 -2 4 C-0.9375 1.5625 -0.9375 1.5625 0 0 Z " fill="#ACADB0" transform="translate(302,78)"/>
<path d="M0 0 C2.97 0.33 5.94 0.66 9 1 C7.02 1.99 7.02 1.99 5 3 C3.29503463 4.62746694 1.62102968 6.28891311 0 8 C-1.125 2.25 -1.125 2.25 0 0 Z " fill="#7B7E84" transform="translate(460,72)"/>
<path d="M0 0 C6.93 0 13.86 0 21 0 C21 1.65 21 3.3 21 5 C20.52046875 4.51917969 20.0409375 4.03835937 19.546875 3.54296875 C15.8724167 1.31687822 12.4733624 1.43506856 8.25 1.3125 C7.06083984 1.26125977 7.06083984 1.26125977 5.84765625 1.20898438 C3.89892496 1.12680896 1.94948638 1.06171955 0 1 C0 0.67 0 0.34 0 0 Z " fill="#7389A0" transform="translate(304,130)"/>
<path d="M0 0 C0.33 0 0.66 0 1 0 C0.88490339 1.41750563 0.75746342 2.83401169 0.625 4.25 C0.55539062 5.03890625 0.48578125 5.8278125 0.4140625 6.640625 C-0.01507113 9.085877 -0.78600638 10.84836903 -2 13 C-2 11.68 -2 10.36 -2 9 C-2.66 9 -3.32 9 -4 9 C-4 7.35 -4 5.7 -4 4 C-2.68 3.67 -1.36 3.34 0 3 C0 2.01 0 1.02 0 0 Z " fill="#7F7D81" transform="translate(451,119)"/>
<path d="M0 0 C0.66 0.33 1.32 0.66 2 1 C2 4.5747073 1.44647162 5.46916729 -1 8 C-3.6875 8.75 -3.6875 8.75 -6 9 C-4.47291037 5.56404834 -2.40072955 2.88087546 0 0 Z " fill="#2A5D83" transform="translate(427,44)"/>
<path d="M0 0 C1.88391785 3.26545761 2.49287967 6.28111761 3 10 C2.34 9.67 1.68 9.34 1 9 C0.01 9.99 -0.98 10.98 -2 12 C-2.33 11.01 -2.66 10.02 -3 9 C-2.34 8.01 -1.68 7.02 -1 6 C-0.60986284 4.0103005 -0.26797351 2.00980131 0 0 Z " fill="#979297" transform="translate(443,141)"/>
<path d="M0 0 C0.66 0 1.32 0 2 0 C2 0.66 2 1.32 2 2 C4.64 2 7.28 2 10 2 C10.33 2.66 10.66 3.32 11 4 C10.05125 4.12375 9.1025 4.2475 8.125 4.375 C4.91332809 4.71687177 4.91332809 4.71687177 3 7 C2.01 4.69 1.02 2.38 0 0 Z " fill="#6C7F90" transform="translate(214,126)"/>
<path d="M0 0 C3 2 3 2 3.51171875 4.1640625 C3.56972656 4.97617188 3.62773437 5.78828125 3.6875 6.625 C3.75324219 7.44226563 3.81898438 8.25953125 3.88671875 9.1015625 C3.92410156 9.72804687 3.96148437 10.35453125 4 11 C3.67 9.68 3.34 8.36 3 7 C1.68 7.33 0.36 7.66 -1 8 C-0.67 5.36 -0.34 2.72 0 0 Z " fill="#8C8B8F" transform="translate(363,156)"/>
<path d="M0 0 C0.33 0 0.66 0 1 0 C1 3.63 1 7.26 1 11 C0.34 11 -0.32 11 -1 11 C-1.33 11.99 -1.66 12.98 -2 14 C-2.05410687 12.22950311 -2.09284119 10.45853151 -2.125 8.6875 C-2.14820313 7.70136719 -2.17140625 6.71523437 -2.1953125 5.69921875 C-2 3 -2 3 0 0 Z " fill="#8A8F9B" transform="translate(453,86)"/>
<path d="M0 0 C0.66 0.33 1.32 0.66 2 1 C1.67 2.65 1.34 4.3 1 6 C-0.98 6 -2.96 6 -5 6 C-3.63016497 2.83884224 -3.0109362 2.0072908 0 0 Z " fill="#2A6594" transform="translate(437,37)"/>
<path d="M0 0 C2.97 0.33 5.94 0.66 9 1 C9.33 2.65 9.66 4.3 10 6 C9.67 5.01 9.34 4.02 9 3 C8.01 3 7.02 3 6 3 C5.67 3.66 5.34 4.32 5 5 C5 4.34 5 3.68 5 3 C3.35 2.67 1.7 2.34 0 2 C0 1.34 0 0.68 0 0 Z " fill="#4C7799" transform="translate(299,32)"/>
<path d="M0 0 C0.66 0.33 1.32 0.66 2 1 C2 3.97 2 6.94 2 10 C1.34 10 0.68 10 0 10 C0 8.68 0 7.36 0 6 C-0.66 6 -1.32 6 -2 6 C-1.34 4.02 -0.68 2.04 0 0 Z " fill="#9D9D9F" transform="translate(283,163)"/>
<path d="M0 0 C0.99 0.33 1.98 0.66 3 1 C2.67 3.97 2.34 6.94 2 10 C1.01 10 0.02 10 -1 10 C-2.15837626 5.94568308 -1.83691257 3.78187881 0 0 Z " fill="#A8A8AC" transform="translate(287,139)"/>
<path d="M0 0 C0.33 0 0.66 0 1 0 C2.38766322 6.05525768 1.49118146 9.32010626 -1 15 C-1.66 15 -2.32 15 -3 15 C-2.67 12.36 -2.34 9.72 -2 7 C-1.34 7 -0.68 7 0 7 C0 4.69 0 2.38 0 0 Z " fill="#848E9D" transform="translate(360,161)"/>
<path d="M0 0 C0.66 0 1.32 0 2 0 C1.34 3.96 0.68 7.92 0 12 C-2.79921583 7.80117625 -1.86558093 5.87872887 -1 1 C-0.67 0.67 -0.34 0.34 0 0 Z " fill="#7D7D7F" transform="translate(513,149)"/>
<path d="M0 0 C0.33 0.66 0.66 1.32 1 2 C1.66 2.33 2.32 2.66 3 3 C2.6875 5.875 2.6875 5.875 2 9 C1.01 9.66 0.02 10.32 -1 11 C-0.67 7.37 -0.34 3.74 0 0 Z " fill="#366C9B" transform="translate(397,144)"/>
<path d="M0 0 C0.66 0 1.32 0 2 0 C2.25 2.75 2.25 2.75 2 6 C0 8.375 0 8.375 -2 10 C-2.25 3.375 -2.25 3.375 0 0 Z " fill="#B0ADB1" transform="translate(528,75)"/>
<path d="M0 0 C2 1 2 1 3.1875 4.375 C4 8 4 8 3 11 C2.34 11 1.68 11 1 11 C-0.28317892 7.15046324 -0.06643637 4.05261865 0 0 Z " fill="#B4B2B6" transform="translate(528,59)"/>
<path d="M0 0 C0.33 0 0.66 0 1 0 C1.35050464 5.841744 1.16727335 9.8531808 -2 15 C-3.31534494 11.34142468 -2.65468309 8.91973519 -1.5625 5.25 C-1.27503906 4.26515625 -0.98757813 3.2803125 -0.69140625 2.265625 C-0.46324219 1.51796875 -0.23507812 0.7703125 0 0 Z " fill="#2D6189" transform="translate(344,36)"/>
<path d="M0 0 C2.97 0 5.94 0 9 0 C8 3 8 3 6.1875 3.9375 C4 4 4 4 1.75 2.0625 C1.1725 1.381875 0.595 0.70125 0 0 Z " fill="#4689C2" transform="translate(295,91)"/>
<path d="M0 0 C1.485 0.99 1.485 0.99 3 2 C2.03644647 11.41002278 2.03644647 11.41002278 1 16 C0.67 16 0.34 16 0 16 C0 10.72 0 5.44 0 0 Z " fill="#504F52" transform="translate(387,52)"/>
<path d="M0 0 C0.99 0.33 1.98 0.66 3 1 C2.67 3.31 2.34 5.62 2 8 C0.68 6.68 -0.64 5.36 -2 4 C-1.34 2.68 -0.68 1.36 0 0 Z " fill="#ADADB2" transform="translate(363,162)"/>
<path d="M0 0 C1.17887665 3.68398952 1 7.15947033 1 11 C1.28520405 12.67557379 1.59955696 14.34817245 2 16 C1.01 15.67 0.02 15.34 -1 15 C-1.02703381 13.06257659 -1.04641125 11.12504521 -1.0625 9.1875 C-1.07410156 8.10855469 -1.08570313 7.02960938 -1.09765625 5.91796875 C-1 3 -1 3 0 0 Z " fill="#738BAA" transform="translate(439,144)"/>
<path d="M0 0 C0.99 0.33 1.98 0.66 3 1 C1.68 4.3 0.36 7.6 -1 11 C-1.33 11 -1.66 11 -2 11 C-1.85892253 9.54119891 -1.71197585 8.08296449 -1.5625 6.625 C-1.48128906 5.81289062 -1.40007812 5.00078125 -1.31640625 4.1640625 C-1 2 -1 2 0 0 Z " fill="#838D9D" transform="translate(449,101)"/>
<path d="M0 0 C1.875 0.0625 1.875 0.0625 4 1 C5.75 4.0625 5.75 4.0625 7 7 C3.08597051 5.73058503 1.20927127 4.48832306 -1 1 C-0.67 0.67 -0.34 0.34 0 0 Z " fill="#3273A8" transform="translate(406,184)"/>
<path d="M0 0 C0.66 0 1.32 0 2 0 C3.125 6.75 3.125 6.75 2 9 C0.68 8.67 -0.64 8.34 -2 8 C-1.67 7.236875 -1.34 6.47375 -1 5.6875 C0.17436686 3.00930865 0.17436686 3.00930865 0 0 Z " fill="#A4A2A5" transform="translate(522,94)"/>
<path d="M0 0 C0.99 0 1.98 0 3 0 C2.34 3.96 1.68 7.92 1 12 C-1.23551759 8.64672361 -1.17283528 8.09256343 -0.625 4.3125 C-0.51414062 3.50425781 -0.40328125 2.69601563 -0.2890625 1.86328125 C-0.19367187 1.24839844 -0.09828125 0.63351563 0 0 Z " fill="#767376" transform="translate(525,89)"/>
<path d="M0 0 C-0.33 2.97 -0.66 5.94 -1 9 C-1.99 8.67 -2.98 8.34 -4 8 C-3.74438677 5.6568787 -3.40729228 3.32156597 -3 1 C-1 0 -1 0 0 0 Z " fill="#939298" transform="translate(460,80)"/>
<path d="M0 0 C2.7839183 1.39195915 2.97898997 3.15575779 4 6 C3.34 6 2.68 6 2 6 C2.33 6.99 2.66 7.98 3 9 C2.01 9.33 1.02 9.66 0 10 C0 6.7 0 3.4 0 0 Z " fill="#2E72AC" transform="translate(484,65)"/>
<path d="M0 0 C3.91402949 1.26941497 5.79072873 2.51167694 8 6 C7.34 6 6.68 6 6 6 C5.67 6.66 5.34 7.32 5 8 C4.731875 7.38125 4.46375 6.7625 4.1875 6.125 C3.04443152 3.7004767 3.04443152 3.7004767 0 2 C0 1.34 0 0.68 0 0 Z " fill="#3C5971" transform="translate(400,183)"/>
<path d="M0 0 C0.66 0 1.32 0 2 0 C1.67 2.64 1.34 5.28 1 8 C0.01 7.67 -0.98 7.34 -2 7 C-1.125 1.125 -1.125 1.125 0 0 Z " fill="#A8A7AC" transform="translate(447,128)"/>
<path d="M0 0 C0.33 0 0.66 0 1 0 C1.027193 1.58323688 1.04648306 3.16661062 1.0625 4.75 C1.07410156 5.63171875 1.08570313 6.5134375 1.09765625 7.421875 C1.00826198 9.7818838 0.66912821 11.74498524 0 14 C-0.66 14 -1.32 14 -2 14 C-1.03644647 4.58997722 -1.03644647 4.58997722 0 0 Z " fill="#163653" transform="translate(413,66)"/>
<path d="M0 0 C0.66 0 1.32 0 2 0 C1.125 4.75 1.125 4.75 0 7 C-2 6 -2 6 -3 4 C-1.625 2 -1.625 2 0 0 Z " fill="#4A83A9" transform="translate(211,96)"/>
<path d="M0 0 C0.99 0 1.98 0 3 0 C3.625 1.875 3.625 1.875 4 4 C3.34 4.66 2.68 5.32 2 6 C1.01 6 0.02 6 -1 6 C-0.67 4.02 -0.34 2.04 0 0 Z " fill="#A29FA1" transform="translate(528,70)"/>
<path d="M0 0 C0.66 0.33 1.32 0.66 2 1 C-0.85276137 3.93200474 -3.65079784 6.64315404 -7 9 C-5.71480435 6.13302508 -4.42870746 4.02392288 -2 2 C-1.34 2 -0.68 2 0 2 C0 1.34 0 0.68 0 0 Z " fill="#356FA6" transform="translate(495,175)"/>
<path d="M0 0 C0.33 0 0.66 0 1 0 C1 3.63 1 7.26 1 11 C0.34 11 -0.32 11 -1 11 C-2.60080151 6.99799622 -1.29279692 3.95443764 0 0 Z " fill="#2D71AD" transform="translate(436,147)"/>
<path d="M0 0 C0.7734375 0.2165625 0.7734375 0.2165625 1.5625 0.4375 C4.68509571 1.15809901 7.82550692 1.57266439 11 2 C11 2.33 11 2.66 11 3 C7.7 3 4.4 3 1 3 C0.67 3.66 0.34 4.32 0 5 C-0.33 4.01 -0.66 3.02 -1 2 C-0.67 1.34 -0.34 0.68 0 0 Z " fill="#858588" transform="translate(369,137)"/>
<path d="M0 0 C0.66 0.33 1.32 0.66 2 1 C2 1.99 2 2.98 2 4 C-0.5 6.1875 -0.5 6.1875 -3 8 C-3.33 7.34 -3.66 6.68 -4 6 C-2.68 4.02 -1.36 2.04 0 0 Z " fill="#346793" transform="translate(420,53)"/>
<path d="M0 0 C2 2 2 2 2.125 4.625 C2.08375 5.40875 2.0425 6.1925 2 7 C1.01 7.33 0.02 7.66 -1 8 C-1.125 2.25 -1.125 2.25 0 0 Z " fill="#4680AC" transform="translate(322,142)"/>
<path d="M0 0 C0.33 0 0.66 0 1 0 C1.36923077 5.41538462 1.36923077 5.41538462 -0.5 8.375 C-0.995 8.91125 -1.49 9.4475 -2 10 C-1.85950482 8.52031676 -1.71245174 7.04125484 -1.5625 5.5625 C-1.48128906 4.73878906 -1.40007813 3.91507812 -1.31640625 3.06640625 C-1 1 -1 1 0 0 Z " fill="#8D909F" transform="translate(514,124)"/>
<path d="M0 0 C0.66 0 1.32 0 2 0 C2.1875 2.8125 2.1875 2.8125 2 6 C1.01 6.99 0.02 7.98 -1 9 C-0.67 6.03 -0.34 3.06 0 0 Z " fill="#B0B0B4" transform="translate(389,46)"/>
<path d="M0 0 C0.99 0 1.98 0 3 0 C3.6875 1.75 3.6875 1.75 4 4 C2.5625 6.25 2.5625 6.25 1 8 C0.67 5.36 0.34 2.72 0 0 Z " fill="#3F8CC3" transform="translate(234,181)"/>
<path d="M0 0 C0.33 0 0.66 0 1 0 C1 1.98 1 3.96 1 6 C-0.32 5.67 -1.64 5.34 -3 5 C-2.67 3.68 -2.34 2.36 -2 1 C-1.34 1.33 -0.68 1.66 0 2 C0 1.34 0 0.68 0 0 Z " fill="#A4ABB4" transform="translate(443,154)"/>
<path d="M0 0 C1.485 0.99 1.485 0.99 3 2 C2.67 3.65 2.34 5.3 2 7 C1.34 7 0.68 7 0 7 C-0.33 7.66 -0.66 8.32 -1 9 C-0.67 6.03 -0.34 3.06 0 0 Z " fill="#2F628F" transform="translate(320,147)"/>
<path d="M0 0 C0.99 0.33 1.98 0.66 3 1 C2.34 4.3 1.68 7.6 1 11 C0.67 11 0.34 11 0 11 C0 7.37 0 3.74 0 0 Z " fill="#2978AE" transform="translate(472,118)"/>
<path d="M0 0 C2.05078125 0.03255208 4.1015625 0.06510417 6.15234375 0.09765625 C5.55421875 0.38640625 4.95609375 0.67515625 4.33984375 0.97265625 C1.95906583 2.14507651 1.95906583 2.14507651 -0.84765625 4.09765625 C-1.50765625 3.10765625 -2.16765625 2.11765625 -2.84765625 1.09765625 C-1.84765625 0.09765625 -1.84765625 0.09765625 0 0 Z " fill="#4289C3" transform="translate(321.84765625,88.90234375)"/>
<path d="" fill="#000000" transform="translate(0,0)"/>
<path d="" fill="#000000" transform="translate(0,0)"/>
<path d="" fill="#000000" transform="translate(0,0)"/>
<path d="" fill="#000000" transform="translate(0,0)"/>
<path d="" fill="#000000" transform="translate(0,0)"/>
<path d="" fill="#000000" transform="translate(0,0)"/>
<path d="" fill="#000000" transform="translate(0,0)"/>
<path d="" fill="#000000" transform="translate(0,0)"/>
<path d="" fill="#000000" transform="translate(0,0)"/>
<path d="" fill="#000000" transform="translate(0,0)"/>
<path d="" fill="#000000" transform="translate(0,0)"/>
<path d="" fill="#000000" transform="translate(0,0)"/>
<path d="" fill="#000000" transform="translate(0,0)"/>
<path d="" fill="#000000" transform="translate(0,0)"/>
<path d="" fill="#000000" transform="translate(0,0)"/>
<path d="" fill="#000000" transform="translate(0,0)"/>
<path d="" fill="#000000" transform="translate(0,0)"/>
<path d="" fill="#000000" transform="translate(0,0)"/>
<path d="" fill="#000000" transform="translate(0,0)"/>
<path d="" fill="#000000" transform="translate(0,0)"/>
<path d="" fill="#000000" transform="translate(0,0)"/>
<path d="" fill="#000000" transform="translate(0,0)"/>
<path d="" fill="#000000" transform="translate(0,0)"/>
<path d="" fill="#000000" transform="translate(0,0)"/>
<path d="" fill="#000000" transform="translate(0,0)"/>
<path d="" fill="#000000" transform="translate(0,0)"/>
<path d="" fill="#000000" transform="translate(0,0)"/>
<path d="" fill="#000000" transform="translate(0,0)"/>
<path d="" fill="#000000" transform="translate(0,0)"/>
<path d="" fill="#000000" transform="translate(0,0)"/>
<path d="" fill="#000000" transform="translate(0,0)"/>
<path d="" fill="#000000" transform="translate(0,0)"/>
<path d="" fill="#000000" transform="translate(0,0)"/>
<path d="" fill="#000000" transform="translate(0,0)"/>
<path d="" fill="#000000" transform="translate(0,0)"/>
<path d="" fill="#000000" transform="translate(0,0)"/>
<path d="" fill="#000000" transform="translate(0,0)"/>
<path d="" fill="#000000" transform="translate(0,0)"/>
<path d="" fill="#000000" transform="translate(0,0)"/>
<path d="" fill="#000000" transform="translate(0,0)"/>
<path d="" fill="#000000" transform="translate(0,0)"/>
<path d="" fill="#000000" transform="translate(0,0)"/>
<path d="" fill="#000000" transform="translate(0,0)"/>
<path d="" fill="#000000" transform="translate(0,0)"/>
<path d="" fill="#000000" transform="translate(0,0)"/>
<path d="" fill="#000000" transform="translate(0,0)"/>
<path d="" fill="#000000" transform="translate(0,0)"/>
<path d="" fill="#000000" transform="translate(0,0)"/>
<path d="" fill="#000000" transform="translate(0,0)"/>
<path d="" fill="#000000" transform="translate(0,0)"/>
<path d="" fill="#000000" transform="translate(0,0)"/>
<path d="" fill="#000000" transform="translate(0,0)"/>
<path d="" fill="#000000" transform="translate(0,0)"/>
<path d="" fill="#000000" transform="translate(0,0)"/>
<path d="" fill="#000000" transform="translate(0,0)"/>
<path d="" fill="#000000" transform="translate(0,0)"/>
<path d="" fill="#000000" transform="translate(0,0)"/>
<path d="" fill="#000000" transform="translate(0,0)"/>
<path d="" fill="#000000" transform="translate(0,0)"/>
</svg>
